<svg id="eC0OT9lDda11" xmlns="http://www.w3.org/2000/svg" xmlns:xlink="http://www.w3.org/1999/xlink" viewBox="0 0 16000 6000" shape-rendering="geometricPrecision" text-rendering="geometricPrecision"><g id="eC0OT9lDda12" transform="matrix(2.168934 0 0 2.168934 -4696.289338 -9828.268696)" clip-rule="evenodd"><polygon id="eC0OT9lDda13" points="4429.86,6204.48 4301.78,6244.5 4173.7,6284.5 4170.76,6363.69 4167.81,6442.88 4292.94,6482.05 4418.08,6521.23 4546.16,6481.22 4674.24,6441.21 4677.18,6362.02 4680.13,6282.83 4554.99,6243.66" opacity="0" clip-rule="evenodd" fill="rgb(189,191,193)" fill-rule="evenodd" stroke="rgb(179,179,179)" stroke-width="6.94" stroke-miterlimit="2.61313"/><polygon id="eC0OT9lDda14" points="4418.32,6136.03 4290.24,6176.04 4162.17,6216.05 4159.22,6295.23 4156.28,6374.42 4281.41,6413.59 4406.55,6452.77 4534.63,6412.76 4662.7,6372.75 4665.65,6293.56 4668.59,6214.38 4543.46,6175.2" opacity="0" clip-rule="evenodd" fill="rgb(210,211,213)" fill-rule="evenodd" stroke="rgb(179,179,179)" stroke-width="6.94" stroke-miterlimit="2.61313"/><polygon id="eC0OT9lDda15" points="4397.64,6059.46 4269.56,6099.47 4141.49,6139.48 4138.54,6218.67 4135.6,6297.85 4260.73,6337.03 4385.87,6376.2 4513.95,6336.19 4642.02,6296.19 4644.96,6217 4647.91,6137.81 4522.78,6098.64" opacity="0" clip-rule="evenodd" fill="rgb(254,254,254)" fill-rule="evenodd" stroke="rgb(179,179,179)" stroke-width="6.94" stroke-miterlimit="2.61313"/><g id="eC0OT9lDda16" clip-rule="evenodd"><polygon id="eC0OT9lDda17" points="4814.64,6029.17 4432.14,5801.58 4049.63,6029.17 4432.14,6256.72" clip-rule="evenodd" fill="none" stroke="rgb(0,0,0)" stroke-width="6.94"/><polygon id="eC0OT9lDda18" points="4814.64,6492.29 4814.64,6029.17 4432.14,6256.72 4432.14,6719.83" clip-rule="evenodd" fill="none" stroke="rgb(0,0,0)" stroke-width="6.94"/><polygon id="eC0OT9lDda19" points="4049.63,6492.29 4049.63,6029.17 4432.14,6256.72 4432.14,6719.83" clip-rule="evenodd" fill="none" stroke="rgb(0,0,0)" stroke-width="6.94"/></g><path id="eC0OT9lDda110" d="M5317.86,6454.63C5548.53,6870.26,5986.82,7108.76,6429.03,7108.76C7130.71,7108.76,7699.86,6539.61,7699.86,5837.93C7699.86,5136.25,7130.71,4567.1,6429.03,4567.1C5727.35,4567.1,5158.2,5136.25,5158.2,5837.93C5158.2,5888.85,5160.62,5931.57,5166.45,5982.47C4999.03,6099.36,4831.6,6216.26,4664.18,6333.16C5317.87,6454.64,5099.97,6414.15,5317.87,6454.64Z" transform="matrix(1 0 0 1 0 76.62)" opacity="0" clip-rule="evenodd" fill="rgb(254,254,254)" stroke="rgb(55,52,53)" stroke-width="6.94" stroke-miterlimit="2.61313" stroke-dasharray="13.8898,20.8346"/><polygon id="eC0OT9lDda111" points="7238.06,6489.56 6823.83,6726.27 5931.63,6726.27 5517.39,6489.56 5931.63,6252.85 6823.83,6252.85" opacity="0" clip-rule="evenodd" fill="rgb(189,191,193)" stroke="rgb(153,153,153)" stroke-width="6.67" stroke-miterlimit="2.61313"/><polygon id="eC0OT9lDda112" points="7225.62,6105.26 6811.39,6341.96 5919.19,6341.96 5504.95,6105.26 5919.19,5868.56 6811.39,5868.56" opacity="0" clip-rule="evenodd" fill="rgb(210,211,213)" stroke="rgb(153,153,153)" stroke-width="6.67" stroke-miterlimit="2.61313"/><polygon id="eC0OT9lDda113" points="7234.44,5757.81 6820.2,5994.52 5928,5994.52 5513.76,5757.81 5928,5521.1 6820.2,5521.1" opacity="0" clip-rule="evenodd" fill="rgb(230,231,232)" stroke="rgb(153,153,153)" stroke-width="6.67" stroke-miterlimit="2.61313"/><path id="eC0OT9lDda114" d="M6134.89,5913.13C6135.46,5910.31,6136.03,5907.5,6136.6,5904.68C6130.91,5911.24,6123.71,5914.54,6115.07,5914.54C6109.52,5914.54,6104.74,5913.07,6100.85,5910.16C6096.93,5907.23,6094.34,5903.16,6093.2,5897.94C6092.06,5892.7,6092.39,5886.69,6094.17,5879.89C6095.91,5873.26,6098.61,5867.24,6102.2,5861.85C6105.79,5856.46,6110.08,5852.33,6115.09,5849.44C6120.05,5846.58,6125.09,5845.12,6130.3,5845.12C6134.17,5845.12,6137.41,5845.98,6140.06,5847.67C6142.71,5849.36,6144.67,5851.58,6146.05,5854.3C6147.15,5848.8,6148.29,5843.29,6149.42,5837.78C6150.55,5832.28,6151.68,5826.76,6152.79,5821.24C6156.21,5821.24,6159.74,5821.24,6163.27,5821.24C6160.36,5836.56,6157.56,5851.9,6154.66,5867.2C6151.75,5882.52,6148.79,5897.82,6145.93,5913.13C6142.23,5913.13,6138.53,5913.13,6134.89,5913.13ZM6105.78,5879.91C6103.67,5888.41,6103.95,5894.79,6106.62,5898.99C6109.3,5903.2,6113.22,5905.3,6118.27,5905.3C6123.48,5905.3,6128.26,5903.31,6132.68,5899.26C6137.04,5895.27,6140.04,5889.09,6141.71,5880.85C6143.55,5871.78,6143.09,5865.12,6140.54,5860.85C6138,5856.61,6134.26,5854.48,6129.21,5854.48C6124.33,5854.48,6119.84,5856.49,6115.49,5860.6C6111.19,5864.66,6107.96,5871.12,6105.77,5879.91ZM6211.11,5904.78C6206.36,5908.35,6201.87,5910.85,6197.64,5912.33C6193.42,5913.81,6188.95,5914.54,6184.3,5914.54C6176.62,5914.54,6170.97,5912.78,6167.44,5909.2C6163.94,5905.65,6162.74,5901.09,6163.63,5895.55C6164.15,5892.31,6165.4,5889.33,6167.39,5886.64C6169.38,5883.94,6171.63,5881.8,6174.32,5880.18C6177.05,5878.54,6179.93,5877.31,6183.08,5876.48C6185.33,5875.89,6188.82,5875.32,6193.32,5874.79C6202.54,5873.71,6209.44,5872.41,6213.83,5870.92C6214.12,5869.38,6214.28,5868.41,6214.32,5867.99C6214.8,5863.43,6214.08,5860.18,6212.22,5858.3C6209.72,5855.76,6205.61,5854.5,6200.11,5854.5C6194.96,5854.5,6190.98,5855.44,6188.22,5857.31C6185.47,5859.17,6183.18,5862.46,6181.27,5867.21C6177.71,5866.71,6174.14,5866.19,6170.63,5865.67C6172.37,5860.94,6174.64,5857.12,6177.35,5854.21C6180.05,5851.31,6183.64,5849.08,6188.11,5847.49C6192.44,5845.95,6197.44,5845.13,6202.94,5845.13C6208.38,5845.13,6212.75,5845.82,6216.02,5847.15C6219.33,5848.5,6221.69,5850.17,6223.07,5852.19C6224.47,5854.23,6225.43,5856.8,6225.77,5859.89C6225.98,5861.82,6225.85,5865.28,6225.36,5870.27C6224.86,5875.26,6224.38,5880.25,6223.9,5885.24C6222.9,5895.69,6222.42,5902.3,6222.64,5905.11C6222.85,5907.9,6223.6,5910.58,6224.9,5913.15C6220.75,5913.15,6216.6,5913.15,6212.51,5913.15C6211.53,5910.77,6211.1,5908,6211.1,5904.8ZM6212.98,5879.76C6208.57,5881.43,6202.26,5882.85,6193.83,5884C6189.02,5884.66,6185.61,5885.4,6183.52,5886.24C6181.48,5887.06,6179.73,5888.3,6178.44,5889.88C6177.15,5891.47,6176.37,5893.26,6176.08,5895.22C6175.62,5898.2,6176.34,5900.68,6178.46,5902.69C6180.52,5904.65,6183.75,5905.68,6188.35,5905.68C6192.83,5905.68,6197.02,5904.72,6200.74,5902.83C6204.48,5900.93,6207.34,5898.36,6209.35,5895.09C6210.91,5892.54,6211.84,5888.81,6212.42,5883.87C6212.58,5882.52,6212.78,5881.13,6212.98,5879.76ZM6265.52,5903.06C6265.94,5906.39,6266.35,5909.71,6266.77,5913.02C6263.41,5913.69,6260.39,5914.03,6257.75,5914.03C6253.49,5914.03,6250.18,5913.4,6247.88,5912.09C6245.63,5910.79,6244.13,5909.1,6243.28,5906.98C6242.44,5904.87,6242.36,5900.42,6242.78,5893.63C6243.17,5887.24,6243.72,5880.84,6244.17,5874.46C6244.61,5868.07,6245.06,5861.67,6245.5,5855.27C6242.75,5855.27,6240.06,5855.27,6237.43,5855.27C6237.65,5852.36,6237.91,5849.45,6238.13,5846.53C6240.77,5846.53,6243.4,5846.53,6246.15,5846.53C6246.53,5841.05,6246.91,5835.57,6247.29,5830.07C6250.93,5827.82,6254.62,5825.56,6258.26,5823.29C6257.89,5831.04,6257.4,5838.79,6256.97,5846.53C6260.56,5846.53,6264.2,5846.53,6267.84,5846.53C6267.74,5849.44,6267.58,5852.36,6267.47,5855.27C6263.77,5855.27,6260.13,5855.27,6256.48,5855.27C6256.11,5861.77,6255.75,5868.29,6255.38,5874.78C6255.01,5881.27,6254.66,5887.77,6254.27,5894.27C6254.08,5897.49,6254.23,5899.57,6254.58,5900.49C6254.93,5901.4,6255.54,5902.14,6256.48,5902.7C6257.36,5903.23,6258.7,5903.51,6260.38,5903.51C6261.67,5903.51,6263.44,5903.36,6265.51,5903.07ZM6322.05,5904.79C6317.86,5908.36,6313.7,5910.86,6309.64,5912.34C6305.58,5913.82,6301.23,5914.55,6296.63,5914.55C6288.95,5914.55,6283.02,5912.79,6278.98,5909.21C6274.98,5905.66,6273.13,5901.1,6273.33,5895.56C6273.44,5892.31,6274.24,5889.32,6275.79,5886.65C6277.37,5883.95,6279.42,5881.81,6281.88,5880.19C6284.38,5878.55,6287.03,5877.31,6290.08,5876.49C6292.32,5875.89,6295.65,5875.33,6300.1,5874.8C6309.21,5873.72,6315.88,5872.42,6320.1,5870.93C6320.16,5869.39,6320.1,5868.4,6320.08,5868C6319.94,5863.43,6318.82,5860.2,6316.69,5858.31C6313.84,5855.77,6309.63,5854.51,6304.08,5854.51C6298.86,5854.51,6295.06,5855.45,6292.58,5857.32C6290.11,5859.18,6288.27,5862.47,6286.98,5867.22C6283.36,5866.72,6279.74,5866.2,6276.17,5865.68C6277.24,5860.95,6278.98,5857.12,6281.27,5854.22C6283.56,5851.31,6286.82,5849.09,6291.07,5847.5C6295.23,5845.95,6300.13,5845.14,6305.62,5845.14C6311.05,5845.14,6315.48,5845.83,6318.92,5847.16C6322.45,5848.52,6325.06,5850.17,6326.76,5852.2C6328.46,5854.23,6329.68,5856.81,6330.47,5859.9C6330.95,5861.83,6331.25,5865.29,6331.46,5870.28C6331.66,5875.27,6331.85,5880.26,6332.07,5885.25C6332.54,5895.7,6333.06,5902.31,6333.66,5905.12C6334.26,5907.92,6335.41,5910.59,6336.93,5913.16C6332.84,5913.16,6328.69,5913.16,6324.6,5913.16C6323.34,5910.78,6322.52,5908.01,6322.01,5904.81ZM6320.44,5879.77C6316.31,5881.44,6310.16,5882.86,6301.9,5884.01C6297.2,5884.67,6293.84,5885.41,6291.87,5886.25C6289.94,5887.07,6288.44,5888.31,6287.35,5889.89C6286.25,5891.5,6285.71,5893.26,6285.66,5895.23C6285.58,5898.2,6286.75,5900.69,6289.1,5902.7C6291.42,5904.67,6294.84,5905.69,6299.38,5905.69C6303.92,5905.69,6307.95,5904.74,6311.44,5902.84C6314.91,5900.95,6317.44,5898.4,6318.99,5895.1C6320.17,5892.58,6320.67,5888.82,6320.55,5883.88C6320.51,5882.53,6320.4,5881.14,6320.44,5879.77ZM6362.41,5913.14C6358.71,5913.14,6355.01,5913.14,6351.37,5913.14C6350.35,5897.83,6349.37,5882.52,6348.38,5867.21C6347.39,5851.9,6346.35,5836.58,6345.33,5821.25C6348.81,5821.25,6352.28,5821.25,6355.81,5821.25C6356.27,5826.73,6356.75,5832.2,6357.18,5837.66C6357.61,5843.12,6358.04,5848.59,6358.49,5854.05C6362.6,5848.1,6368.13,5845.12,6375.25,5845.12C6379.17,5845.12,6383.02,5845.95,6386.73,5847.59C6390.43,5849.23,6393.6,5851.57,6396.3,5854.54C6399.02,5857.53,6401.27,5861.13,6403.19,5865.34C6405.1,5869.53,6406.42,5874.04,6407.08,5878.83C6408.65,5890.21,6407.06,5899.06,6402.03,5905.22C6396.92,5911.48,6390.22,5914.54,6381.86,5914.54C6373.68,5914.54,6366.93,5911.26,6361.75,5904.75C6361.96,5907.55,6362.18,5910.34,6362.38,5913.13ZM6359.6,5879.35C6360.23,5887.3,6361.81,5893.07,6364.32,5896.61C6368.44,5902.41,6373.7,5905.31,6379.97,5905.31C6385.07,5905.31,6389.24,5903.17,6392.41,5898.9C6395.58,5894.62,6396.65,5888.24,6395.6,5879.77C6394.53,5871.1,6392.03,5864.68,6388.18,5860.57C6384.3,5856.42,6379.97,5854.37,6375.26,5854.37C6370.5,5854.37,6366.58,5856.52,6363.45,5860.79C6360.3,5865.07,6358.96,5871.24,6359.6,5879.35ZM6470.13,5904.79C6466.5,5908.36,6462.78,5910.86,6459.02,5912.34C6455.29,5913.81,6451.06,5914.55,6446.4,5914.55C6438.72,5914.55,6432.5,5912.8,6427.8,5909.21C6423.17,5905.68,6420.41,5901.09,6419.57,5895.56C6419.08,5892.31,6419.4,5889.34,6420.46,5886.65C6421.53,5883.96,6423.12,5881.8,6425.27,5880.19C6427.48,5878.54,6429.97,5877.31,6432.86,5876.49C6434.99,5875.89,6438.15,5875.34,6442.6,5874.8C6451.43,5873.73,6457.87,5872.42,6461.82,5870.93C6461.6,5869.39,6461.39,5868.41,6461.3,5868C6460.34,5863.43,6458.57,5860.22,6456.06,5858.31C6452.75,5855.79,6448.33,5854.51,6442.78,5854.51C6437.62,5854.51,6433.95,5855.43,6431.78,5857.32C6429.67,5859.15,6428.43,5862.47,6428.03,5867.22C6424.3,5866.72,6420.62,5866.2,6416.88,5865.68C6417.11,5860.95,6418.1,5857.11,6419.85,5854.22C6421.62,5851.3,6424.5,5849.09,6428.48,5847.5C6432.36,5845.95,6437.09,5845.14,6442.58,5845.14C6448.02,5845.14,6452.61,5845.83,6456.28,5847.16C6460.04,5848.52,6462.94,5850.19,6464.96,5852.2C6467.02,5854.26,6468.88,5856.8,6470.18,5859.9C6470.99,5861.82,6472,5865.29,6473.13,5870.28C6474.26,5875.27,6475.4,5880.26,6476.55,5885.25C6478.96,5895.7,6480.62,5902.31,6481.79,5905.12C6482.95,5907.92,6484.49,5910.59,6486.51,5913.16C6482.36,5913.16,6478.21,5913.16,6474.18,5913.16C6472.47,5910.78,6471.09,5908.01,6470.13,5904.81ZM6463.82,5879.77C6459.97,5881.44,6454.1,5882.85,6446.01,5884.01C6441.47,5884.66,6438.3,5885.42,6436.48,5886.25C6434.67,5887.08,6433.36,5888.31,6432.58,5889.89C6431.79,5891.48,6431.57,5893.26,6431.89,5895.23C6432.38,5898.2,6433.94,5900.69,6436.68,5902.7C6439.35,5904.66,6443.04,5905.69,6447.52,5905.69C6452.06,5905.69,6455.97,5904.74,6459.07,5902.84C6462.15,5900.95,6464.18,5898.36,6465.11,5895.1C6465.84,5892.54,6465.63,5888.82,6464.59,5883.88C6464.3,5882.52,6464,5881.14,6463.81,5879.77ZM6491.47,5893.25C6495.12,5892.65,6498.82,5892.05,6502.42,5891.45C6504.27,5895.91,6506.89,5899.35,6510.51,5901.73C6514.11,5904.11,6518.59,5905.3,6523.92,5905.3C6529.36,5905.3,6533.01,5904.23,6534.96,5902.13C6536.92,5900.02,6537.51,5897.57,6536.63,5894.71C6535.84,5892.17,6534.05,5890.13,6531.43,5888.71C6529.53,5887.68,6525.2,5886.41,6518.59,5884.87C6509.66,5882.79,6503.44,5881.02,6499.82,5879.48C6496.24,5877.96,6493.23,5875.86,6490.91,5873.15C6488.64,5870.49,6487.07,5867.5,6486.26,5864.25C6485.52,5861.28,6485.54,5858.53,6486.21,5856.02C6486.89,5853.48,6488.21,5851.41,6489.98,5849.74C6491.33,5848.46,6493.32,5847.37,6496.02,5846.46C6498.72,5845.56,6501.67,5845.11,6505.03,5845.11C6510.01,5845.11,6514.63,5845.88,6518.83,5847.38C6523.07,5848.9,6526.56,5850.91,6529.21,5853.49C6531.84,5856.06,6534.08,5859.53,6536.19,5863.85C6532.69,5864.37,6529.25,5864.88,6525.75,5865.39C6524.24,5861.93,6521.98,5859.2,6519.11,5857.26C6516.2,5855.3,6512.6,5854.35,6508.39,5854.35C6503.4,5854.35,6500.02,5855.21,6498.31,5856.92C6496.6,5858.62,6496.07,5860.64,6496.68,5862.93C6497.07,5864.39,6497.77,5865.71,6499,5866.89C6500.26,5868.09,6501.96,5869.09,6504.12,5869.88C6505.31,5870.31,6508.9,5871.29,6514.83,5872.77C6523.33,5874.9,6529.41,5876.64,6532.96,5877.98C6536.55,5879.34,6539.7,5881.33,6542.29,5883.89C6544.92,5886.48,6546.92,5889.68,6548.14,5893.53C6549.33,5897.27,6549.29,5900.8,6548.04,5904.12C6546.81,5907.42,6544.26,5910.01,6540.48,5911.82C6536.72,5913.63,6532.05,5914.53,6526.55,5914.53C6517.53,5914.53,6510.09,5912.73,6504.47,5909.16C6498.8,5905.57,6494.55,5900.26,6491.47,5893.23ZM6607.43,5891.57C6611.56,5892.09,6615.74,5892.6,6619.92,5893.12C6620.84,5899.9,6619.46,5905.21,6615.81,5908.92C6612.09,5912.7,6606.15,5914.55,6598.02,5914.55C6587.82,5914.55,6578.76,5911.56,6570.76,5905.57C6562.81,5899.61,6557.1,5891.2,6553.55,5880.4C6549.88,5869.24,6549.87,5860.55,6553.35,5854.39C6556.84,5848.21,6562.93,5845.13,6571.73,5845.13C6580.25,5845.13,6588.32,5848.17,6596.2,5854.21C6604.13,5860.28,6610.47,5868.76,6614.93,5879.73C6615.2,5880.39,6615.51,5881.41,6616.02,5882.72C6599.32,5882.72,6582.67,5882.72,6566.02,5882.72C6568.93,5890.02,6573.04,5895.65,6578.17,5899.49C6583.37,5903.38,6588.89,5905.31,6594.61,5905.31C6598.92,5905.31,6602.17,5904.23,6604.35,5902.03C6606.5,5899.87,6607.55,5896.37,6607.44,5891.57ZM6563.44,5873.49C6575.77,5873.49,6588.05,5873.49,6600.44,5873.49C6597.71,5867.88,6594.66,5863.7,6591.27,5860.9C6586.06,5856.57,6580.76,5854.37,6575.15,5854.37C6570.16,5854.37,6566.57,5856.12,6564.35,5859.57C6562.13,5863.04,6561.85,5867.67,6563.44,5873.49Z" opacity="0" clip-rule="evenodd" fill="rgb(55,52,53)" stroke="none" stroke-width="1"/><polygon id="eC0OT9lDda115" points="7234.43,5375.08 6820.2,5611.79 5928,5611.79 5513.76,5375.08 5928,5138.37 6820.2,5138.37" opacity="0" clip-rule="evenodd" fill="rgb(254,254,254)" stroke="rgb(153,153,153)" stroke-width="6.67" stroke-miterlimit="2.61313"/><path id="eC0OT9lDda116" d="M6137.03,5511.91C6140.55,5511.66,6143.96,5511.41,6147.47,5511.16C6146.21,5514.51,6146.06,5517.24,6146.79,5519.39C6147.51,5521.52,6149.35,5523.26,6152.47,5524.58C6155.58,5525.9,6159.53,5526.56,6164.24,5526.56C6168.41,5526.56,6172.29,5526.06,6175.93,5525.06C6179.62,5524.05,6182.56,5522.69,6184.86,5520.93C6187.14,5519.19,6188.66,5517.27,6189.53,5515.24C6190.42,5513.17,6190.42,5511.37,6189.61,5509.8C6188.82,5508.26,6187.04,5506.96,6184.16,5505.89C6182.35,5505.22,6178.07,5504.13,6171.42,5502.66C6164.82,5501.2,6160.41,5499.82,6158.15,5498.52C6155.22,5496.84,6153.48,5494.78,6152.89,5492.32C6152.31,5489.87,6152.81,5487.09,6154.37,5484.05C6156.1,5480.68,6158.86,5477.55,6162.48,5474.64C6166.09,5471.73,6170.28,5469.51,6175.12,5467.99C6179.95,5466.48,6184.84,5465.71,6189.86,5465.71C6195.32,5465.71,6199.84,5466.51,6203.36,5468.09C6206.91,5469.68,6209.18,5472,6210.21,5475.1C6211.23,5478.18,6211.04,5481.67,6209.65,5485.56C6206.24,5485.78,6202.93,5486,6199.58,5486.21C6200.85,5482.01,6200.4,5478.88,6198.32,5476.72C6196.27,5474.59,6192.48,5473.5,6186.65,5473.5C6180.66,5473.5,6175.76,5474.49,6172.1,5476.42C6168.38,5478.38,6165.8,5480.71,6164.4,5483.46C6163.19,5485.84,6163.32,5487.81,6164.56,5489.35C6165.78,5490.88,6170.18,5492.48,6177.81,5494.08C6185.54,5495.71,6190.72,5497.1,6193.33,5498.32C6197.13,5500.09,6199.64,5502.35,6200.7,5505.08C6201.75,5507.8,6201.58,5510.92,6200.13,5514.49C6198.7,5518.01,6196.17,5521.34,6192.38,5524.46C6188.59,5527.58,6183.95,5530.01,6178.44,5531.74C6172.92,5533.47,6167.19,5534.34,6161.14,5534.34C6153.6,5534.34,6147.69,5533.44,6143.46,5531.72C6139.11,5529.95,6136.51,5527.34,6135.44,5523.82C6134.37,5520.31,6134.93,5516.34,6137.05,5511.9ZM6207.44,5533.24C6211.66,5522.17,6215.85,5511.1,6220.04,5500.04C6224.23,5488.97,6228.48,5477.9,6232.65,5466.82C6237.57,5466.82,6242.49,5466.82,6247.41,5466.82C6247.56,5474.66,6247.83,5482.49,6248.24,5490.33C6248.66,5498.16,6249.31,5506,6250.04,5513.83C6250.45,5518.2,6250.67,5521.48,6250.84,5523.67C6252.58,5521.25,6255.11,5517.71,6258.51,5513.02C6264.07,5505.33,6269.52,5497.65,6274.81,5489.93C6280.08,5482.26,6285.27,5474.53,6290.42,5466.83C6294.8,5466.83,6299.19,5466.83,6303.63,5466.83C6300.91,5477.9,6298.16,5488.98,6295.46,5500.05C6292.77,5511.11,6290.07,5522.18,6287.4,5533.25C6283.82,5533.25,6280.23,5533.25,6276.7,5533.25C6279.14,5523.99,6281.54,5514.73,6283.98,5505.47C6286.42,5496.21,6288.81,5486.95,6291.26,5477.69C6285.07,5486.95,6278.82,5496.23,6272.32,5505.47C6265.8,5514.74,6259.09,5523.99,6252.26,5533.25C6248.89,5533.25,6245.57,5533.25,6242.26,5533.25C6241.28,5523.83,6240.37,5514.38,6239.78,5504.96C6239.2,5495.53,6238.82,5486.09,6238.53,5476.66C6235.13,5486.09,6231.73,5495.53,6228.34,5504.96C6224.94,5514.38,6221.49,5523.83,6218.09,5533.25C6214.51,5533.25,6210.98,5533.25,6207.45,5533.25ZM6305.1,5533.24C6307.5,5522.17,6309.82,5511.11,6312.19,5500.04C6314.57,5488.97,6316.99,5477.9,6319.34,5466.82C6328.7,5466.82,6338.06,5466.82,6347.42,5466.82C6352.34,5466.82,6356.09,5467.06,6358.63,5467.45C6362.24,5468.01,6365.18,5469.03,6367.46,5470.54C6369.78,5472.08,6371.51,5474.21,6372.78,5476.95C6374.04,5479.68,6374.48,5482.69,6374.12,5485.99C6373.51,5491.62,6370.88,5496.4,6366.17,5500.3C6361.46,5504.21,6353.33,5506.15,6342.04,5506.15C6335.19,5506.15,6328.4,5506.15,6321.56,5506.15C6320.68,5510.67,6319.77,5515.18,6318.92,5519.7C6318.07,5524.22,6317.16,5528.73,6316.27,5533.24C6312.53,5533.24,6308.78,5533.24,6305.09,5533.24ZM6323.07,5498.37C6329.86,5498.37,6336.65,5498.37,6343.44,5498.37C6350.18,5498.37,6355.1,5497.31,6358.19,5495.2C6361.28,5493.08,6363.01,5490.11,6363.49,5486.27C6363.83,5483.5,6363.37,5481.12,6362.04,5479.14C6360.7,5477.16,6358.76,5475.84,6356.21,5475.21C6354.59,5474.81,6351.47,5474.63,6346.98,5474.63C6340.56,5474.63,6334.09,5474.63,6327.73,5474.63C6326.92,5478.59,6326.14,5482.56,6325.37,5486.51C6324.59,5490.46,6323.87,5494.42,6323.07,5498.38ZM6374.05,5534.35C6379.1,5522.91,6384.13,5511.48,6388.84,5500.04C6393.54,5488.62,6397.93,5477.16,6402.24,5465.71C6404.7,5465.71,6407.11,5465.71,6409.62,5465.71C6405.42,5477.15,6401.19,5488.61,6396.65,5500.04C6392.1,5511.49,6387.29,5522.92,6382.34,5534.35C6379.56,5534.35,6376.78,5534.35,6374.05,5534.35ZM6412.74,5511.91C6416.09,5511.66,6419.4,5511.41,6422.76,5511.16C6423.2,5514.51,6424.29,5517.25,6426.04,5519.39C6427.78,5521.53,6430.52,5523.26,6434.29,5524.58C6438.04,5525.9,6442.31,5526.56,6447.02,5526.56C6451.19,5526.56,6454.86,5526.07,6458.01,5525.06C6461.16,5524.06,6463.47,5522.69,6464.9,5520.93C6466.33,5519.19,6466.95,5517.28,6466.84,5515.24C6466.73,5513.17,6465.87,5511.39,6464.25,5509.8C6462.7,5508.28,6460.35,5506.95,6456.93,5505.89C6454.75,5505.21,6449.98,5504.13,6442.58,5502.66C6435.34,5501.21,6430.25,5499.81,6427.38,5498.52C6423.62,5496.83,6420.84,5494.78,6419.08,5492.32C6417.32,5489.87,6416.54,5487.09,6416.6,5484.05C6416.67,5480.68,6417.92,5477.54,6420.11,5474.64C6422.31,5471.72,6425.44,5469.5,6429.54,5467.99C6433.67,5466.47,6438.19,5465.71,6443.21,5465.71C6448.67,5465.71,6453.57,5466.51,6457.84,5468.09C6462.14,5469.68,6465.56,5472.01,6468.06,5475.1C6470.55,5478.19,6472.05,5481.67,6472.58,5485.56C6469.27,5485.78,6466.08,5486,6462.83,5486.21C6462.07,5482.01,6460.11,5478.86,6457.02,5476.72C6453.95,5474.58,6449.57,5473.5,6443.8,5473.5C6437.75,5473.5,6433.34,5474.48,6430.58,5476.42C6427.82,5478.38,6426.41,5480.71,6426.36,5483.46C6426.32,5485.84,6427.34,5487.81,6429.3,5489.35C6431.25,5490.88,6436.42,5492.47,6444.85,5494.08C6453.38,5495.71,6459.25,5497.1,6462.46,5498.32C6467.11,5500.09,6470.66,5502.34,6473.09,5505.08C6475.5,5507.79,6476.8,5510.94,6477.07,5514.49C6477.34,5518.03,6476.37,5521.34,6474.13,5524.46C6471.89,5527.58,6468.32,5530,6463.67,5531.74C6459.05,5533.46,6453.7,5534.34,6447.71,5534.34C6440.17,5534.34,6433.8,5533.47,6428.69,5531.72C6423.57,5529.97,6419.67,5527.35,6416.87,5523.82C6414.1,5520.32,6412.78,5516.34,6412.76,5511.9ZM6493.47,5533.24C6492.28,5522.17,6491.13,5511.11,6489.97,5500.04C6488.82,5488.97,6487.66,5477.9,6486.53,5466.82C6491.4,5466.82,6496.32,5466.82,6501.24,5466.82C6505.19,5474.66,6509.23,5482.52,6513.41,5490.33C6517.61,5498.18,6522.19,5506,6526.65,5513.83C6529.15,5518.2,6530.96,5521.48,6532.15,5523.67C6532.77,5521.25,6533.6,5517.7,6534.69,5513.02C6536.47,5505.32,6538.3,5497.63,6539.81,5489.93C6541.32,5482.24,6542.89,5474.53,6544.24,5466.83C6548.63,5466.83,6553.07,5466.83,6557.45,5466.83C6560.13,5477.9,6562.73,5488.98,6565.38,5500.05C6568.03,5511.12,6570.69,5522.18,6573.37,5533.25C6569.78,5533.25,6566.2,5533.25,6562.67,5533.25C6560.62,5523.99,6558.57,5514.73,6556.52,5505.47C6554.48,5496.21,6552.43,5486.95,6550.32,5477.69C6548.63,5486.95,6546.88,5496.22,6544.86,5505.47C6542.84,5514.73,6540.56,5523.99,6538.22,5533.25C6534.85,5533.25,6531.53,5533.25,6528.22,5533.25C6522.68,5523.83,6517.18,5514.4,6512.05,5504.96C6506.92,5495.55,6501.94,5486.09,6497.16,5476.66C6498.31,5486.09,6499.46,5495.53,6500.6,5504.96C6501.74,5514.38,6502.9,5523.83,6504.04,5533.25C6500.46,5533.25,6496.98,5533.25,6493.45,5533.25ZM6590.65,5533.24C6587.65,5522.17,6584.67,5511.11,6581.7,5500.04C6578.73,5488.98,6575.81,5477.9,6572.81,5466.82C6576.07,5466.82,6579.38,5466.82,6582.7,5466.82C6585.47,5476.6,6588.32,5486.38,6591.12,5496.14C6593.92,5505.91,6596.71,5515.68,6599.6,5525.44C6613.08,5525.44,6626.66,5525.44,6640.25,5525.44C6641.14,5528.04,6642.08,5530.64,6643.02,5533.23C6625.53,5533.23,6608.09,5533.23,6590.66,5533.23Z" opacity="0" clip-rule="evenodd" fill="rgb(55,52,53)" stroke="none" stroke-width="1"/><path id="eC0OT9lDda117" d="M5894.02,6256.31C5899.13,6246.05,5904.28,6235.79,5909.33,6225.53C5914.39,6215.27,5919.45,6205.01,5924.55,6194.74C5927.4,6194.74,5930.15,6194.74,5933.09,6194.74C5931.72,6197.64,5930.25,6200.54,5928.87,6203.44C5932.11,6200.43,5935.6,6197.98,5939.38,6196.18C5943.26,6194.33,5947.04,6193.44,5950.77,6193.44C5954.9,6193.44,5957.93,6194.38,5959.81,6196.27C5961.66,6198.14,5962.27,6200.8,5961.87,6204.19C5969.63,6197.02,5976.89,6193.44,5984.07,6193.44C5989.66,6193.44,5993.31,6195.13,5994.97,6198.5C5996.64,6201.89,5996.2,6207.07,5993.4,6214.1C5990.6,6221.14,5987.9,6228.19,5985.15,6235.22C5982.4,6242.25,5979.65,6249.29,5976.8,6256.32C5973.36,6256.32,5969.93,6256.32,5966.49,6256.32C5969.04,6249.86,5971.69,6243.4,5974.34,6236.94C5976.99,6230.48,5979.63,6224.02,5982.2,6217.56C5983.85,6213.41,5984.8,6210.39,5984.95,6208.56C5985.1,6206.73,5984.41,6205.26,5983.28,6204.13C5982.15,6203.01,5980.34,6202.45,5978.17,6202.45C5974.14,6202.45,5970.13,6203.87,5966.19,6206.76C5962.28,6209.63,5959,6214.25,5956.27,6220.58C5953.7,6226.54,5951.01,6232.5,5948.42,6238.45C5945.82,6244.4,5943.31,6250.36,5940.66,6256.31C5937.12,6256.31,5933.69,6256.31,5930.25,6256.31C5933.29,6249.65,5936.19,6242.99,5939.18,6236.34C5942.18,6229.68,5945.35,6223.02,5948.31,6216.34C5950.36,6211.72,5951.11,6208.23,5950.57,6205.93C5950.03,6203.61,5948.01,6202.45,5944.38,6202.45C5941.63,6202.45,5938.8,6203.23,5935.83,6204.76C5932.81,6206.32,5929.95,6208.56,5927.49,6211.55C5925.05,6214.51,5922.44,6218.81,5919.73,6224.4C5917.15,6229.73,5914.53,6235.05,5911.97,6240.36C5909.42,6245.68,5906.86,6250.99,5904.31,6256.31C5900.87,6256.31,5897.44,6256.31,5894,6256.31ZM6040.15,6236.37C6043.39,6236.85,6046.83,6237.33,6050.17,6237.8C6046.54,6244.06,6041.95,6248.96,6036.32,6252.41C6030.66,6255.88,6024.34,6257.61,6017.27,6257.61C6008.23,6257.61,6002.15,6254.85,5999,6249.3C5995.87,6243.8,5996.17,6236.01,5999.98,6226.04C6003.92,6215.72,6009.55,6207.7,6016.58,6201.99C6023.59,6196.29,6030.82,6193.43,6038.67,6193.43C6046.14,6193.43,6051.4,6196.22,6054.39,6201.81C6057.39,6207.42,6057.43,6215.28,6054.29,6225.42C6054.1,6226.04,6053.8,6226.97,6053.41,6228.19C6038.77,6228.19,6024.15,6228.19,6009.51,6228.19C6007.45,6234.94,6007.36,6240.12,6009.41,6243.69C6011.47,6247.27,6015.01,6249.07,6020.11,6249.07C6023.84,6249.07,6027.32,6248.04,6030.62,6246.05C6033.99,6244.01,6037.2,6240.81,6040.14,6236.37ZM6013.24,6219.65C6024.04,6219.65,6034.85,6219.65,6045.75,6219.65C6046.93,6214.46,6046.94,6210.59,6045.75,6208C6043.9,6203.98,6040.64,6201.97,6035.73,6201.97C6031.42,6201.97,6027.05,6203.56,6022.86,6206.77C6018.7,6209.97,6015.4,6214.26,6013.24,6219.64ZM6058.91,6237.92C6062.35,6237.37,6065.78,6236.82,6069.22,6236.26C6068.63,6240.39,6069.41,6243.56,6071.38,6245.76C6073.34,6247.96,6076.68,6249.07,6081.3,6249.07C6086.01,6249.07,6089.8,6248.09,6092.59,6246.15C6095.4,6244.19,6097.02,6241.91,6097.7,6239.28C6098.3,6236.93,6097.74,6235.08,6096.03,6233.72C6094.89,6232.81,6091.79,6231.63,6086.7,6230.18C6080.01,6228.28,6075.4,6226.6,6072.95,6225.2C6070.49,6223.78,6068.98,6221.85,6068.24,6219.35C6067.51,6216.88,6067.67,6214.13,6068.54,6211.12C6069.33,6208.38,6070.7,6205.84,6072.56,6203.51C6074.42,6201.18,6076.62,6199.24,6078.95,6197.7C6080.74,6196.52,6083.17,6195.5,6085.93,6194.66C6088.67,6193.84,6091.52,6193.42,6094.47,6193.42C6098.89,6193.42,6102.66,6194.1,6105.66,6195.52C6108.55,6196.88,6110.63,6198.8,6111.66,6201.17C6112.69,6203.55,6112.93,6206.74,6112.64,6210.74C6109.3,6211.21,6105.96,6211.68,6102.72,6212.16C6103.01,6208.96,6102.42,6206.44,6100.85,6204.64C6099.29,6202.85,6096.73,6201.96,6092.9,6201.96C6088.48,6201.96,6085.08,6202.76,6082.79,6204.33C6080.48,6205.92,6078.81,6207.77,6078.27,6209.88C6077.93,6211.23,6077.93,6212.45,6078.46,6213.54C6079,6214.65,6079.92,6215.59,6081.5,6216.31C6082.37,6216.71,6084.94,6217.59,6089.46,6218.98C6095.85,6220.94,6100.36,6222.56,6102.82,6223.81C6105.27,6225.05,6107.1,6226.88,6108.12,6229.26C6109.15,6231.65,6109.21,6234.62,6108.32,6238.18C6107.45,6241.64,6105.81,6244.92,6103.12,6247.97C6100.42,6251.04,6096.73,6253.41,6092.61,6255.09C6088.48,6256.77,6083.97,6257.59,6079.16,6257.59C6071.2,6257.59,6065.51,6255.95,6062.37,6252.64C6059.23,6249.33,6058.15,6244.41,6058.93,6237.91ZM6116.35,6237.92C6119.7,6237.37,6123.13,6236.82,6126.57,6236.26C6126.27,6240.39,6127.26,6243.56,6129.42,6245.76C6131.57,6247.96,6134.92,6249.07,6139.53,6249.07C6144.34,6249.07,6148.11,6248.11,6150.73,6246.15C6153.31,6244.21,6154.88,6241.91,6155.34,6239.28C6155.76,6236.93,6155.08,6235.06,6153.28,6233.72C6152.04,6232.79,6148.83,6231.64,6143.56,6230.18C6136.75,6228.29,6131.99,6226.59,6129.51,6225.2C6126.99,6223.77,6125.19,6221.85,6124.31,6219.35C6123.44,6216.89,6123.45,6214.13,6124.12,6211.12C6124.72,6208.38,6125.89,6205.84,6127.56,6203.51C6129.22,6201.18,6131.19,6199.23,6133.45,6197.7C6135.21,6196.51,6137.55,6195.49,6140.22,6194.66C6142.94,6193.83,6145.82,6193.42,6148.76,6193.42C6153.19,6193.42,6156.9,6194.12,6159.96,6195.52C6162.99,6196.91,6165.27,6198.8,6166.44,6201.17C6167.62,6203.55,6168.21,6206.74,6168.11,6210.74C6164.78,6211.21,6161.53,6211.68,6158.29,6212.16C6158.49,6208.96,6157.7,6206.44,6155.94,6204.64C6154.18,6202.85,6151.51,6201.96,6147.79,6201.96C6143.37,6201.96,6139.99,6202.74,6137.77,6204.33C6135.58,6205.9,6134.1,6207.77,6133.75,6209.88C6133.52,6211.23,6133.71,6212.45,6134.24,6213.54C6134.78,6214.65,6135.72,6215.58,6137.38,6216.31C6138.27,6216.7,6141.01,6217.6,6145.54,6218.98C6152.01,6220.95,6156.76,6222.55,6159.29,6223.81C6161.77,6225.04,6163.81,6226.89,6164.98,6229.26C6166.16,6231.65,6166.46,6234.62,6165.87,6238.18C6165.3,6241.64,6163.8,6244.9,6161.25,6247.97C6158.7,6251.03,6155.35,6253.41,6151.33,6255.09C6147.31,6256.77,6142.89,6257.59,6138.07,6257.59C6130.12,6257.59,6124.35,6255.92,6120.98,6252.64C6117.57,6249.31,6116.07,6244.41,6116.36,6237.91ZM6215.74,6248.6C6211.72,6251.9,6207.73,6254.23,6204.05,6255.58C6200.26,6256.96,6196.39,6257.61,6192.36,6257.61C6185.58,6257.61,6180.67,6255.97,6177.53,6252.68C6174.39,6249.4,6173.29,6245.18,6174.09,6240.06C6174.56,6237.06,6175.67,6234.3,6177.33,6231.82C6179,6229.33,6181.03,6227.34,6183.32,6225.84C6185.63,6224.32,6188.21,6223.17,6190.98,6222.42C6193.01,6221.87,6196.08,6221.35,6200.02,6220.86C6208.16,6219.85,6214.16,6218.66,6218.09,6217.28C6218.18,6215.85,6218.35,6214.94,6218.39,6214.57C6218.84,6210.34,6218.19,6207.35,6216.52,6205.62C6214.26,6203.27,6210.73,6202.1,6205.92,6202.1C6201.3,6202.1,6197.82,6202.96,6195.41,6204.68C6193.02,6206.39,6191.09,6209.45,6189.32,6213.84C6186.17,6213.37,6183.03,6212.9,6179.99,6212.41C6181.56,6208.04,6183.57,6204.5,6185.88,6201.81C6188.18,6199.13,6191.29,6197.07,6195.21,6195.61C6199.04,6194.18,6203.56,6193.44,6208.37,6193.44C6213.08,6193.44,6217.05,6194.04,6219.96,6195.29C6222.84,6196.53,6224.92,6198.08,6226.15,6199.96C6227.37,6201.83,6228.21,6204.21,6228.5,6207.08C6228.69,6208.86,6228.5,6212.07,6228.11,6216.67C6227.72,6221.28,6227.35,6225.9,6226.94,6230.51C6226.08,6240.18,6225.81,6246.29,6225.96,6248.88C6226.11,6251.47,6226.74,6253.94,6227.83,6256.32C6224.2,6256.32,6220.56,6256.32,6217.03,6256.32C6216.04,6254.12,6215.75,6251.55,6215.75,6248.61ZM6217.22,6225.47C6213.49,6227.01,6207.98,6228.3,6200.52,6229.38C6196.3,6229.99,6193.32,6230.68,6191.49,6231.46C6189.7,6232.22,6188.18,6233.37,6187.06,6234.82C6185.93,6236.31,6185.18,6237.95,6184.91,6239.76C6184.5,6242.5,6185.21,6244.82,6187.06,6246.66C6188.93,6248.5,6191.87,6249.43,6195.8,6249.43C6199.82,6249.43,6203.48,6248.57,6206.71,6246.8C6209.86,6245.07,6212.46,6242.67,6214.17,6239.64C6215.5,6237.29,6216.54,6233.83,6216.92,6229.27C6217.03,6228.01,6217.12,6226.74,6217.22,6225.47ZM6238.24,6261.41C6241.58,6261.89,6244.92,6262.36,6248.26,6262.84C6248.56,6265.96,6249.57,6268.25,6251.41,6269.67C6253.9,6271.61,6257.5,6272.56,6262.11,6272.56C6266.92,6272.56,6270.74,6271.59,6273.4,6269.67C6276.05,6267.76,6277.96,6265.05,6279,6261.58C6279.63,6259.47,6279.88,6255.02,6279.98,6248.23C6275.37,6253.61,6269.67,6256.3,6262.9,6256.3C6254.55,6256.3,6248.22,6253.25,6244.04,6247.14C6239.88,6241.06,6238.26,6233.73,6238.84,6225.21C6239.24,6219.35,6240.71,6213.93,6242.97,6208.96C6245.23,6204,6248.4,6200.19,6252.3,6197.47C6256.15,6194.77,6260.65,6193.42,6265.56,6193.42C6272.24,6193.42,6277.54,6196.38,6281.76,6202.31C6281.86,6199.79,6281.96,6197.26,6281.96,6194.72C6284.9,6194.72,6287.76,6194.72,6290.8,6194.72C6290.6,6203.58,6290.69,6212.46,6290.6,6221.31C6290.51,6230.16,6290.35,6239.03,6290.3,6247.88C6290.25,6257.47,6289.27,6264.25,6287.26,6268.24C6285.25,6272.23,6282.08,6275.44,6277.83,6277.72C6273.44,6280.07,6268.01,6281.19,6261.73,6281.19C6254.27,6281.19,6248.29,6279.55,6243.86,6276.25C6239.46,6272.97,6237.77,6268.01,6238.26,6261.39ZM6249.04,6224.47C6248.59,6232.51,6249.72,6238.39,6252.67,6242.09C6255.61,6245.78,6259.45,6247.64,6264.26,6247.64C6268.97,6247.64,6272.9,6245.81,6276.14,6242.12C6279.38,6238.44,6280.95,6232.67,6281.15,6224.81C6281.34,6217.29,6279.96,6211.61,6276.93,6207.8C6273.89,6203.98,6270.25,6202.09,6265.83,6202.09C6261.61,6202.09,6257.83,6203.96,6254.54,6207.72C6251.25,6211.46,6249.46,6217.06,6249.04,6224.47ZM6346.47,6236.37C6349.8,6236.85,6353.34,6237.33,6356.88,6237.8C6355.8,6244.06,6353.04,6248.95,6348.73,6252.41C6344.42,6255.87,6338.81,6257.61,6331.64,6257.61C6322.7,6257.61,6315.55,6254.85,6310.23,6249.3C6304.95,6243.8,6302.42,6236.02,6302.37,6226.04C6302.33,6215.72,6304.78,6207.7,6309.54,6201.99C6314.3,6196.29,6320.54,6193.43,6328.3,6193.43C6335.86,6193.43,6342.15,6196.22,6347.36,6201.81C6352.56,6207.41,6355.46,6215.28,6356.29,6225.42C6356.34,6226.04,6356.49,6226.97,6356.49,6228.19C6341.86,6228.19,6327.22,6228.19,6312.59,6228.19C6313.07,6234.94,6315.05,6240.12,6318.48,6243.69C6321.92,6247.27,6326.24,6249.07,6331.25,6249.07C6334.98,6249.07,6338.19,6248.05,6340.68,6246.05C6343.2,6244.02,6345.2,6240.81,6346.48,6236.37ZM6312.98,6219.65C6323.78,6219.65,6334.59,6219.65,6345.39,6219.65C6344.6,6214.46,6343.13,6210.6,6340.96,6208C6337.63,6204,6333.6,6201.97,6328.79,6201.97C6324.27,6201.97,6320.73,6203.56,6317.79,6206.77C6314.85,6209.98,6313.17,6214.26,6312.98,6219.64ZM6442.12,6236.37C6445.66,6236.85,6449.19,6237.33,6452.82,6237.8C6452.43,6244.06,6450.33,6248.94,6446.34,6252.41C6442.38,6255.86,6437.01,6257.61,6429.94,6257.61C6421.01,6257.61,6413.5,6254.85,6407.55,6249.3C6401.63,6243.8,6398.15,6236.02,6396.85,6226.04C6395.51,6215.72,6397.04,6207.7,6401.17,6201.99C6405.29,6196.29,6411.09,6193.43,6418.85,6193.43C6426.41,6193.43,6432.92,6196.23,6438.79,6201.81C6444.7,6207.43,6448.73,6215.28,6450.77,6225.42C6450.89,6226.03,6451.06,6226.97,6451.26,6228.19C6436.63,6228.19,6422,6228.19,6407.36,6228.19C6408.64,6234.94,6411.3,6240.12,6415.12,6243.69C6418.95,6247.27,6423.46,6249.07,6428.47,6249.07C6432.2,6249.07,6435.35,6248.06,6437.6,6246.05C6439.86,6244.03,6441.34,6240.81,6442.12,6236.37ZM6406.67,6219.65C6417.47,6219.65,6428.27,6219.65,6439.18,6219.65C6437.81,6214.46,6435.71,6210.59,6433.29,6208C6429.53,6203.99,6425.23,6201.97,6420.33,6201.97C6415.9,6201.97,6412.33,6203.56,6409.82,6206.77C6407.33,6209.97,6406.28,6214.26,6406.68,6219.64ZM6462.45,6256.31C6465.1,6250.99,6467.61,6245.68,6470.11,6240.36C6472.61,6235.05,6475.02,6229.73,6477.38,6224.41C6472.96,6219.47,6468.54,6214.52,6464.22,6209.58C6459.9,6204.64,6455.68,6199.69,6451.55,6194.74C6455.38,6194.74,6459.31,6194.74,6463.24,6194.74C6467.17,6199.58,6471.37,6204.42,6475.52,6209.27C6477.84,6211.98,6479.74,6214.21,6481.02,6215.95C6482.19,6213.48,6483.16,6211.25,6483.96,6209.25C6485.9,6204.42,6487.79,6199.58,6489.76,6194.74C6493.59,6194.74,6497.52,6194.74,6501.45,6194.74C6499.49,6199.69,6497.52,6204.64,6495.56,6209.58C6493.6,6214.52,6491.63,6219.47,6489.57,6224.41C6494.38,6229.72,6499.25,6235.05,6504.2,6240.36C6509.16,6245.69,6514.42,6250.99,6519.52,6256.31C6515.4,6256.31,6511.17,6256.31,6506.95,6256.31C6501.06,6249.98,6495.36,6243.65,6489.67,6237.33C6488.39,6235.81,6487.01,6234.29,6485.84,6232.76C6482.4,6240.61,6478.77,6248.47,6475.14,6256.32C6470.81,6256.32,6466.69,6256.32,6462.47,6256.32ZM6528.45,6256.31C6524.32,6242.16,6520.3,6227.99,6516.27,6213.84C6512.25,6199.69,6508.12,6185.52,6504.1,6171.36C6507.14,6171.36,6510.29,6171.36,6513.33,6171.36C6514.9,6176.46,6516.43,6181.56,6517.95,6186.66C6519.47,6191.74,6520.99,6196.85,6522.47,6201.94C6525.32,6196.27,6530.03,6193.44,6536.81,6193.44C6540.93,6193.44,6544.86,6194.33,6548.5,6196.13C6552.13,6197.93,6555.18,6200.41,6557.63,6203.57C6560.08,6206.74,6562.29,6211.34,6564.41,6217.35C6566.71,6223.85,6568.93,6230.35,6571.19,6236.85C6573.45,6243.33,6575.71,6249.83,6577.87,6256.33C6574.43,6256.33,6571,6256.33,6567.56,6256.33C6565.5,6249.85,6563.24,6243.35,6561.08,6236.87C6558.92,6230.39,6556.72,6223.88,6554.6,6217.39C6552.9,6212.18,6550.65,6208.37,6547.73,6206.02C6544.76,6203.63,6541.45,6202.46,6537.71,6202.46C6534.87,6202.46,6532.38,6203.24,6530.35,6204.86C6528.36,6206.44,6527.16,6208.63,6526.91,6211.38C6526.67,6214.1,6527.28,6217.89,6528.68,6222.71C6530.31,6228.31,6532.07,6233.92,6533.68,6239.52C6535.3,6245.12,6537.12,6250.72,6538.69,6256.33C6535.25,6256.33,6531.81,6256.33,6528.47,6256.33ZM6630.49,6248.6C6628.13,6251.9,6625.33,6254.19,6622.24,6255.58C6619.24,6256.92,6615.76,6257.61,6611.63,6257.61C6604.95,6257.61,6599.16,6255.97,6594.35,6252.68C6589.55,6249.4,6586.29,6245.17,6584.43,6240.06C6583.34,6237.06,6583.01,6234.3,6583.45,6231.82C6583.89,6229.33,6584.87,6227.36,6586.39,6225.84C6587.91,6224.34,6589.84,6223.2,6592.28,6222.42C6593.95,6221.89,6596.79,6221.35,6600.43,6220.86C6608.07,6219.84,6613.39,6218.66,6616.73,6217.28C6616.04,6215.85,6615.71,6214.95,6615.55,6214.57C6613.75,6210.35,6611.68,6207.37,6609.07,6205.62C6605.59,6203.28,6601.5,6202.1,6596.6,6202.1C6592.08,6202.1,6589.08,6202.97,6587.56,6204.68C6586.03,6206.41,6585.6,6209.45,6586.19,6213.84C6582.75,6213.37,6579.41,6212.9,6576.17,6212.41C6575.28,6208.04,6575.43,6204.5,6576.47,6201.81C6577.5,6199.12,6579.5,6197.06,6582.66,6195.61C6585.79,6194.17,6589.83,6193.44,6594.74,6193.44C6599.45,6193.44,6603.67,6194.06,6607.11,6195.29C6610.63,6196.55,6613.55,6198.09,6615.76,6199.96C6617.98,6201.85,6620.09,6204.2,6621.85,6207.08C6622.93,6208.85,6624.44,6212.06,6626.46,6216.67C6628.46,6221.27,6630.29,6225.9,6632.25,6230.51C6636.37,6240.18,6639.28,6246.28,6640.8,6248.88C6642.32,6251.47,6644.24,6253.94,6646.49,6256.32C6642.86,6256.32,6639.22,6256.32,6635.69,6256.32C6633.73,6254.12,6631.96,6251.55,6630.49,6248.61ZM6620.08,6225.47C6617.13,6227.01,6612.12,6228.3,6605.34,6229.38C6601.51,6229.99,6598.8,6230.67,6597.29,6231.46C6595.86,6232.21,6595.17,6233.37,6594.73,6234.82C6594.29,6236.3,6594.36,6237.96,6595.02,6239.76C6596.02,6242.51,6598.02,6244.81,6600.82,6246.66C6603.61,6248.49,6606.91,6249.43,6611.04,6249.43C6614.87,6249.43,6618.1,6248.56,6620.47,6246.8C6622.82,6245.06,6624.14,6242.67,6624.3,6239.64C6624.43,6237.29,6623.57,6233.83,6621.65,6229.27C6621.12,6228,6620.67,6226.74,6620.08,6225.47ZM6659.26,6256.32C6654.64,6246.06,6650.13,6235.8,6645.51,6225.54C6640.89,6215.28,6636.38,6205.02,6631.76,6194.75C6634.61,6194.75,6637.56,6194.75,6640.4,6194.75C6641.68,6197.66,6643.05,6200.57,6644.33,6203.48C6645.31,6196.78,6649.83,6193.44,6657.69,6193.44C6661.13,6193.44,6664.44,6194.12,6667.9,6195.44C6671.41,6196.78,6674.53,6198.52,6677.04,6200.68C6679.53,6202.82,6681.78,6205.4,6683.91,6208.37C6685.31,6210.31,6687.13,6213.68,6689.6,6218.51C6692.82,6224.81,6696.04,6231.13,6699.22,6237.43C6702.41,6243.72,6705.61,6250.03,6708.75,6256.33C6705.21,6256.33,6701.78,6256.33,6698.44,6256.33C6695.29,6250.1,6692.2,6243.86,6689.11,6237.63C6686.02,6231.41,6683.02,6225.15,6679.87,6218.91C6677.72,6214.66,6675.89,6211.48,6674.08,6209.39C6672.26,6207.29,6670.09,6205.59,6667.6,6204.35C6665.09,6203.09,6662.49,6202.47,6659.94,6202.47C6655.81,6202.47,6652.92,6203.88,6651.3,6206.7C6649.68,6209.51,6650.53,6214.86,6654.15,6222.74C6656.72,6228.34,6659.27,6233.96,6661.81,6239.55C6664.37,6245.15,6667.11,6250.75,6669.57,6256.34C6666.13,6256.34,6662.7,6256.34,6659.26,6256.34ZM6725.36,6261.42C6729.09,6261.9,6732.62,6262.37,6736.36,6262.85C6738.32,6265.97,6740.73,6268.26,6743.43,6269.68C6747.11,6271.62,6751.19,6272.57,6755.8,6272.57C6760.61,6272.57,6763.87,6271.59,6765.33,6269.68C6766.8,6267.76,6767.09,6265.06,6766.11,6261.59C6765.52,6259.49,6763.17,6255.03,6759.34,6248.24C6757.86,6253.62,6753.74,6256.31,6746.97,6256.31C6738.62,6256.31,6730.44,6253.26,6722.71,6247.15C6715.02,6241.07,6708.92,6233.75,6704.45,6225.22C6701.37,6219.36,6699.49,6213.94,6698.85,6208.97C6698.22,6204.01,6699.15,6200.19,6701.41,6197.48C6703.66,6194.78,6707.3,6193.43,6712.31,6193.43C6718.89,6193.43,6726.06,6196.39,6733.82,6202.32C6732.35,6199.8,6730.88,6197.27,6729.5,6194.73C6732.44,6194.73,6735.3,6194.73,6738.34,6194.73C6743.45,6203.59,6748.79,6212.45,6753.95,6221.32C6759.1,6230.16,6764.29,6239.05,6769.47,6247.89C6775.09,6257.49,6778.17,6264.26,6778.51,6268.25C6778.85,6272.25,6777.63,6275.42,6774.68,6277.73C6771.74,6280.04,6767.02,6281.2,6760.73,6281.2C6753.17,6281.2,6746.21,6279.55,6739.91,6276.26C6733.65,6272.98,6728.72,6268.02,6725.38,6261.4ZM6714.26,6224.48C6718.59,6232.52,6723.23,6238.39,6728.4,6242.1C6733.53,6245.78,6738.42,6247.65,6743.13,6247.65C6747.84,6247.65,6750.79,6245.82,6751.87,6242.13C6752.95,6238.45,6750.99,6232.69,6746.47,6224.82C6742.16,6217.32,6737.43,6211.62,6732.13,6207.81C6726.83,6203.99,6722.02,6202.1,6717.79,6202.1C6713.37,6202.1,6710.77,6203.97,6709.74,6207.73C6708.71,6211.48,6710.26,6217.07,6714.26,6224.48ZM6818.65,6236.38C6822.38,6236.86,6826.21,6237.34,6830.04,6237.81C6832.49,6244.07,6832.84,6248.96,6830.53,6252.42C6828.23,6255.88,6823.56,6257.62,6816.58,6257.62C6807.64,6257.62,6798.81,6254.85,6790.26,6249.31C6781.73,6243.79,6774.45,6236.03,6768.46,6226.05C6762.28,6215.73,6759.77,6207.7,6761.19,6202C6762.61,6196.29,6767.28,6193.44,6775.04,6193.44C6782.5,6193.44,6790.43,6196.24,6798.9,6201.82C6807.42,6207.43,6815.33,6215.29,6822.18,6225.43C6822.59,6226.04,6823.06,6226.98,6823.95,6228.2C6809.31,6228.2,6794.68,6228.2,6780.05,6228.2C6784.57,6234.95,6789.55,6240.14,6795.07,6243.7C6800.64,6247.29,6805.98,6249.08,6810.98,6249.08C6814.81,6249.08,6817.47,6248.07,6818.74,6246.06C6820.02,6244.04,6820.02,6240.82,6818.64,6236.38ZM6775.24,6219.66C6786.04,6219.66,6796.94,6219.66,6807.75,6219.66C6803.92,6214.47,6800,6210.59,6796.36,6208.01C6790.68,6203.99,6785.36,6201.98,6780.55,6201.98C6776.13,6201.98,6773.33,6203.57,6772.3,6206.78C6771.28,6209.98,6772.3,6214.27,6775.24,6219.65Z" opacity="0" clip-rule="evenodd" fill="rgb(55,52,53)" stroke="none" stroke-width="1"/><path id="eC0OT9lDda118" d="M5907.8,6626.7C5908.97,6624.1,5910.34,6621.49,5911.61,6618.89C5904.41,6624.95,5896.79,6628,5888.74,6628C5883.44,6628,5879.22,6626.66,5876.25,6623.96C5873.29,6621.27,5871.91,6617.49,5872.12,6612.66C5872.33,6607.82,5874.14,6602.26,5877.52,6595.97C5880.81,6589.84,5884.87,6584.28,5889.59,6579.28C5894.29,6574.3,5899.41,6570.48,5904.94,6567.81C5910.41,6565.17,5915.52,6563.81,5920.5,6563.81C5924.2,6563.81,5927.07,6564.6,5929.18,6566.16C5931.29,6567.72,5932.56,6569.79,5933.2,6572.29C5935.63,6567.2,5938.12,6562.1,5940.61,6557.01C5943.09,6551.93,5945.48,6546.83,5947.91,6541.73C5951.19,6541.73,5954.47,6541.73,5957.86,6541.73C5951.3,6555.89,5944.67,6570.07,5938.07,6584.21C5931.45,6598.36,5924.72,6612.53,5918.16,6626.68C5914.66,6626.68,5911.17,6626.68,5907.79,6626.68ZM5888.43,6596C5884.27,6603.86,5883.19,6609.73,5884.62,6613.63C5886.05,6617.52,5889.18,6619.46,5894.05,6619.46C5898.92,6619.46,5904,6617.6,5909.09,6613.88C5914.16,6610.17,5918.65,6604.48,5922.32,6596.86C5926.36,6588.47,5927.71,6582.3,5926.34,6578.37C5924.97,6574.44,5921.9,6572.48,5917.24,6572.48C5912.47,6572.48,5907.68,6574.33,5902.52,6578.13C5897.42,6581.88,5892.74,6587.87,5888.44,6596ZM5945.7,6595.91C5950.84,6584.55,5957.73,6576.11,5966.45,6570.64C5973.71,6566.08,5981.17,6563.82,5988.69,6563.82C5996.94,6563.82,6002.76,6566.59,6006.05,6572.13C6009.32,6577.65,6009.1,6585.3,6005.42,6595.05C6002.44,6602.96,5998.81,6609.16,5994.62,6613.69C5990.45,6618.22,5985.32,6621.75,5979.58,6624.25C5973.78,6626.77,5967.93,6628.01,5962.22,6628.01C5952.91,6628.01,5946.59,6625.26,5943.37,6619.75C5940.14,6614.23,5941.01,6606.28,5945.7,6595.92ZM5956.61,6595.93C5953.12,6603.79,5952.39,6609.71,5954.28,6613.58C5956.19,6617.51,5960.1,6619.46,5965.61,6619.46C5971.11,6619.46,5976.42,6617.48,5981.59,6613.56C5986.79,6609.61,5991.09,6603.63,5994.19,6595.59C5997.12,6588,5997.57,6582.25,5995.67,6578.35C5993.76,6574.44,5990.27,6572.48,5985.08,6572.48C5979.78,6572.48,5974.59,6574.41,5969.52,6578.3C5964.44,6582.2,5960.09,6588.08,5956.61,6595.92ZM6056.65,6604.16C6060.04,6604.63,6063.43,6605.1,6066.91,6605.58C6063.63,6612.6,6059.02,6618.09,6052.94,6622.06C6046.84,6626.04,6040.13,6628,6032.93,6628C6023.93,6628,6017.57,6625.25,6014.08,6619.76C6010.59,6614.27,6010.72,6606.39,6014.51,6596.15C6016.97,6589.5,6020.12,6583.71,6024.14,6578.72C6028.15,6573.75,6032.64,6569.99,6037.9,6567.55C6043.33,6565.03,6048.59,6563.81,6053.88,6563.81C6060.45,6563.81,6065.33,6565.51,6068.49,6568.88C6071.68,6572.27,6073.05,6577.07,6072.51,6583.27C6068.91,6583.79,6065.31,6584.3,6061.71,6584.82C6061.92,6580.69,6061.34,6577.57,6059.49,6575.49C6057.64,6573.4,6055.05,6572.37,6051.55,6572.37C6046.26,6572.37,6041.27,6574.25,6036.73,6578.01C6032.18,6581.77,6028.51,6587.71,6025.61,6595.86C6022.68,6604.12,6022.28,6610.11,6024.35,6613.85C6026.41,6617.58,6030.06,6619.46,6035.57,6619.46C6039.81,6619.46,6043.96,6618.22,6047.64,6615.7C6051.26,6613.21,6054.31,6609.35,6056.64,6604.15ZM6113.29,6626.7C6114.03,6623.64,6114.77,6620.59,6115.4,6617.54C6108.62,6624.53,6101.01,6628,6092.21,6628C6088.3,6628,6084.85,6627.29,6081.84,6625.93C6078.72,6624.52,6076.86,6622.79,6075.8,6620.69C6074.74,6618.58,6074.35,6616.01,6074.53,6612.97C6074.66,6610.92,6075.43,6607.66,6076.64,6603.23C6078.39,6596.89,6080.25,6590.54,6082.05,6584.18C6083.84,6577.83,6085.54,6571.48,6087.34,6565.13C6090.84,6565.13,6094.22,6565.13,6097.71,6565.13C6096.13,6570.81,6094.69,6576.5,6093.16,6582.17C6091.62,6587.84,6090.06,6593.53,6088.5,6599.2C6087,6604.64,6086.21,6608.32,6086.17,6610.2C6086.11,6612.94,6087.12,6615.08,6088.93,6616.65C6090.71,6618.21,6093.27,6619,6096.65,6619C6100.04,6619,6103.25,6618.22,6106.61,6616.6C6109.92,6615.01,6112.43,6612.8,6114.23,6610.05C6116.03,6607.31,6117.55,6603.3,6118.79,6598.05C6120.09,6592.57,6121.33,6587.08,6122.6,6581.59C6123.87,6576.11,6125.14,6570.61,6126.41,6565.12C6129.8,6565.12,6133.19,6565.12,6136.78,6565.12C6134.46,6575.4,6132.18,6585.66,6130.01,6595.92C6127.84,6606.18,6125.57,6616.44,6123.44,6626.7C6120.05,6626.7,6116.66,6626.7,6113.28,6626.7ZM6140.92,6626.7C6142.93,6616.44,6145,6606.17,6146.96,6595.92C6148.92,6585.66,6150.98,6575.4,6153,6565.12C6156.07,6565.12,6159.14,6565.12,6162.31,6565.12C6161.68,6568.02,6161.14,6570.92,6160.61,6573.82C6163.16,6570.81,6166.1,6568.37,6169.61,6566.56C6173.18,6564.72,6176.92,6563.81,6180.83,6563.81C6185.38,6563.81,6188.9,6564.79,6191.52,6566.64C6194.2,6568.55,6195.87,6571.17,6196.5,6574.56C6202.54,6567.39,6209.2,6563.8,6216.93,6563.8C6223.07,6563.8,6227.43,6565.5,6230.37,6568.87C6233.35,6572.26,6234.7,6577.45,6234.07,6584.47C6233.44,6591.51,6232.96,6598.56,6232.37,6605.59C6231.79,6612.62,6231.11,6619.66,6230.57,6626.69C6226.76,6626.69,6223.05,6626.69,6219.35,6626.69C6219.99,6620.23,6220.62,6613.76,6221.26,6607.31C6221.89,6600.85,6222.53,6594.39,6223.17,6587.93C6223.58,6583.78,6223.43,6580.77,6222.96,6578.93C6222.49,6577.1,6221.47,6575.62,6219.78,6574.5C6218.08,6573.37,6215.97,6572.82,6213.54,6572.82C6209.2,6572.82,6205.37,6574.26,6202.21,6577.13C6199.02,6580.02,6196.88,6584.62,6196.07,6590.95C6195.3,6596.91,6194.48,6602.87,6193.74,6608.82C6193,6614.77,6192.26,6620.73,6191.41,6626.68C6187.6,6626.68,6183.89,6626.68,6180.19,6626.68C6181.14,6620.02,6182.05,6613.36,6183.04,6606.71C6184.04,6600.05,6185.01,6593.38,6186,6586.71C6186.69,6582.08,6186.31,6578.6,6184.94,6576.3C6183.56,6573.98,6180.92,6572.82,6177.11,6572.82C6174.15,6572.82,6171.31,6573.6,6168.64,6575.13C6165.92,6576.69,6163.61,6578.94,6161.97,6581.92C6160.34,6584.89,6158.97,6589.17,6157.94,6594.77C6156.96,6600.1,6155.92,6605.42,6154.98,6610.73C6154.03,6616.04,6153.08,6621.36,6152.12,6626.68C6148.31,6626.68,6144.6,6626.68,6140.9,6626.68ZM6292.2,6606.76C6295.8,6607.24,6299.71,6607.72,6303.42,6608.19C6301.73,6614.45,6298.48,6619.35,6293.58,6622.8C6288.64,6626.27,6282.36,6628,6274.63,6628C6265,6628,6257.4,6625.24,6252.08,6619.69C6246.81,6614.19,6244.63,6606.41,6245.31,6596.43C6246.01,6586.11,6249.29,6578.07,6254.94,6572.38C6260.61,6566.66,6267.64,6563.82,6275.9,6563.82C6284.06,6563.82,6290.68,6566.62,6295.81,6572.2C6300.95,6577.81,6303.76,6585.67,6303.85,6595.81C6303.85,6596.42,6303.75,6597.36,6303.75,6598.58C6287.87,6598.58,6271.99,6598.58,6256.21,6598.58C6256.32,6605.32,6257.97,6610.52,6261.4,6614.08C6264.85,6617.67,6269.45,6619.46,6274.84,6619.46C6278.86,6619.46,6282.33,6618.44,6285.21,6616.44C6288.14,6614.41,6290.51,6611.2,6292.2,6606.76ZM6257.37,6590.04C6269.02,6590.04,6280.76,6590.04,6292.41,6590.04C6292.1,6584.85,6290.62,6580.99,6288.5,6578.39C6285.22,6574.39,6281.08,6572.36,6275.8,6572.36C6271.04,6572.36,6266.86,6573.95,6263.41,6577.16C6259.98,6580.36,6257.91,6584.65,6257.37,6590.03ZM6317.71,6626.7C6317.5,6616.44,6317.33,6606.17,6317.08,6595.92C6316.82,6585.66,6316.55,6575.4,6316.34,6565.12C6319.4,6565.12,6322.48,6565.12,6325.55,6565.12C6325.66,6568.03,6325.76,6570.94,6325.86,6573.86C6330.1,6567.16,6336.45,6563.82,6344.92,6563.82C6348.51,6563.82,6351.96,6564.51,6355.09,6565.82C6358.31,6567.17,6360.75,6568.9,6362.5,6571.06C6364.24,6573.21,6365.58,6575.78,6366.41,6578.75C6366.95,6580.69,6367.39,6584.07,6367.89,6588.89C6368.54,6595.19,6369.06,6601.51,6369.59,6607.81C6370.12,6614.11,6370.75,6620.41,6371.28,6626.71C6367.47,6626.71,6363.76,6626.71,6360.06,6626.71C6359.64,6620.48,6359.21,6614.24,6358.69,6608.01C6358.17,6601.78,6357.81,6595.53,6357.32,6589.29C6356.98,6585.04,6356.26,6581.86,6355.31,6579.77C6354.36,6577.67,6352.78,6575.99,6350.65,6574.73C6348.55,6573.49,6345.88,6572.85,6343.24,6572.85C6338.69,6572.85,6335.09,6574.26,6331.91,6577.08C6328.74,6579.89,6327.36,6585.24,6327.67,6593.12C6327.89,6598.72,6328.1,6604.34,6328.31,6609.93C6328.52,6615.52,6328.83,6621.13,6328.94,6626.72C6325.13,6626.72,6321.42,6626.72,6317.72,6626.72ZM6411.51,6617.38C6412.36,6620.46,6413.31,6623.53,6414.26,6626.6C6411.2,6627.2,6408.55,6627.52,6406.01,6627.52C6401.88,6627.52,6398.77,6626.94,6396.27,6625.73C6393.8,6624.54,6392.19,6622.95,6391.08,6621C6389.97,6619.04,6389.14,6614.93,6388.43,6608.66C6387.77,6602.75,6387,6596.84,6386.32,6590.93C6385.63,6585.02,6385.05,6579.11,6384.41,6573.19C6381.76,6573.19,6379.22,6573.19,6376.58,6573.19C6376.26,6570.51,6376.05,6567.82,6375.84,6565.13C6378.38,6565.13,6380.92,6565.13,6383.46,6565.13C6382.83,6560.06,6382.29,6554.98,6381.77,6549.91C6384.84,6547.82,6387.91,6545.74,6391.09,6543.65C6391.94,6550.82,6392.89,6557.98,6393.84,6565.14C6397.23,6565.14,6400.72,6565.14,6404.22,6565.14C6404.54,6567.83,6404.85,6570.53,6405.28,6573.2C6401.78,6573.2,6398.29,6573.2,6394.91,6573.2C6395.54,6579.22,6396.23,6585.24,6397.02,6591.24C6397.81,6597.25,6398.68,6603.26,6399.45,6609.26C6399.83,6612.25,6400.25,6614.17,6400.72,6615.02C6401.19,6615.86,6401.88,6616.55,6402.84,6617.05C6403.78,6617.55,6405.06,6617.81,6406.65,6617.81C6407.92,6617.81,6409.51,6617.67,6411.52,6617.39ZM6501.7,6626.7C6501.07,6624.1,6500.44,6621.49,6499.8,6618.89C6497.15,6624.95,6491.75,6628,6483.71,6628C6478.31,6628,6473.12,6626.66,6468.25,6623.96C6463.39,6621.27,6459.25,6617.49,6455.87,6612.66C6452.48,6607.82,6450.33,6602.26,6449.09,6595.97C6447.89,6589.84,6447.82,6584.28,6448.87,6579.28C6449.93,6574.29,6452.32,6570.47,6455.86,6567.81C6459.4,6565.15,6463.59,6563.81,6468.56,6563.81C6472.27,6563.81,6475.69,6564.59,6478.94,6566.16C6482.14,6567.71,6484.97,6569.79,6487.51,6572.29C6486.24,6567.2,6484.97,6562.1,6483.7,6557.01C6482.43,6551.93,6481.16,6546.83,6479.78,6541.73C6483.17,6541.73,6486.45,6541.73,6489.84,6541.73C6493.54,6555.89,6497.3,6570.06,6501.06,6584.21C6504.82,6598.36,6508.47,6612.53,6512.18,6626.68C6508.69,6626.68,6505.19,6626.68,6501.7,6626.68ZM6460.1,6596C6461.71,6603.86,6464.66,6609.73,6468.99,6613.63C6473.33,6617.53,6477.88,6619.46,6482.65,6619.46C6487.62,6619.46,6491.28,6617.61,6493.77,6613.88C6496.24,6610.18,6496.52,6604.49,6494.61,6596.86C6492.5,6588.48,6489.2,6582.3,6484.98,6578.37C6480.75,6574.44,6476.3,6572.48,6471.54,6572.48C6466.88,6572.48,6463.48,6574.37,6461.17,6578.13C6458.83,6581.92,6458.45,6587.87,6460.11,6596ZM6568.29,6606.76C6572.1,6607.24,6575.92,6607.72,6579.94,6608.19C6580.47,6614.45,6578.77,6619.34,6575.07,6622.8C6571.37,6626.26,6565.64,6628,6557.92,6628C6548.39,6628,6539.87,6625.22,6532.73,6619.69C6525.59,6614.17,6520.45,6606.41,6517.69,6596.43C6514.84,6586.11,6515.26,6578.08,6518.96,6572.38C6522.66,6566.67,6528.59,6563.82,6536.96,6563.82C6545.11,6563.82,6552.59,6566.62,6559.72,6572.2C6566.88,6577.81,6572.33,6585.67,6575.92,6595.81C6576.13,6596.42,6576.44,6597.36,6576.87,6598.58C6560.99,6598.58,6545.22,6598.58,6529.44,6598.58C6531.87,6605.32,6535.37,6610.51,6540.02,6614.08C6544.68,6617.66,6549.76,6619.46,6555.17,6619.46C6559.19,6619.46,6562.39,6618.43,6564.59,6616.44C6566.83,6614.4,6567.98,6611.2,6568.29,6606.76ZM6527.53,6590.04C6539.18,6590.04,6550.82,6590.04,6562.57,6590.04C6560.35,6584.85,6557.6,6580.97,6554.63,6578.39C6549.99,6574.37,6545,6572.36,6539.7,6572.36C6534.94,6572.36,6531.44,6573.95,6529.12,6577.16C6526.79,6580.36,6526.26,6584.65,6527.53,6590.03ZM6600.36,6626.7C6595.06,6612.55,6589.82,6598.37,6584.59,6584.23C6579.35,6570.08,6574,6555.91,6568.81,6541.75C6572.09,6541.75,6575.37,6541.75,6578.76,6541.75C6584.26,6555.91,6589.72,6570.08,6595.17,6584.23C6600.62,6598.38,6606.08,6612.55,6611.47,6626.7C6607.77,6626.7,6604.06,6626.7,6600.36,6626.7ZM6599.19,6553.61C6597.61,6549.66,6596.02,6545.7,6594.32,6541.74C6597.61,6541.74,6600.99,6541.74,6604.38,6541.74C6606.08,6545.7,6607.77,6549.65,6609.47,6553.61C6605.97,6553.61,6602.58,6553.61,6599.2,6553.61ZM6628.84,6626.7C6624.71,6616.44,6620.53,6606.18,6616.34,6595.92C6612.16,6585.66,6608.08,6575.4,6603.95,6565.12C6607.34,6565.12,6610.73,6565.12,6614.33,6565.12C6618.56,6575.4,6622.8,6585.66,6627.14,6595.92C6631.47,6606.18,6635.82,6616.44,6640.05,6626.7C6636.24,6626.7,6632.54,6626.7,6628.83,6626.7ZM6675.21,6626.7C6666.32,6616.44,6657.43,6606.19,6648.85,6595.92C6640.29,6585.67,6631.91,6575.4,6623.65,6565.12C6627.35,6565.12,6631.06,6565.12,6634.77,6565.12C6639.64,6571.27,6644.68,6577.43,6649.59,6583.57C6654.52,6589.71,6659.7,6595.87,6664.83,6602C6668.16,6605.97,6671.5,6610.11,6674.89,6614.39C6674.25,6611.15,6673.9,6607.24,6673.41,6602.69C6672.74,6596.43,6672.19,6590.17,6671.4,6583.91C6670.6,6577.65,6669.92,6571.39,6669.18,6565.12C6672.68,6565.12,6676.16,6565.12,6679.77,6565.12C6681.03,6575.4,6682.15,6585.66,6683.26,6595.92C6684.37,6606.18,6685.17,6616.44,6686.02,6626.7C6682.42,6626.7,6678.82,6626.7,6675.22,6626.7ZM6754.4,6606.76C6758.32,6607.24,6762.34,6607.72,6766.36,6608.19C6768.37,6614.45,6767.95,6619.34,6764.99,6622.8C6762.03,6626.26,6756.84,6628,6749.21,6628C6739.47,6628,6730.44,6625.24,6721.89,6619.69C6713.4,6614.19,6706.56,6606.41,6701.46,6596.43C6696.19,6586.11,6694.8,6578.08,6697.12,6572.38C6699.44,6566.68,6704.75,6563.82,6713.1,6563.82C6721.14,6563.82,6729.45,6566.6,6737.87,6572.2C6746.28,6577.79,6753.59,6585.67,6759.57,6595.81C6759.93,6596.42,6760.42,6597.36,6761.05,6598.58C6745.17,6598.58,6729.5,6598.58,6713.73,6598.58C6717.65,6605.32,6722.43,6610.51,6727.92,6614.08C6733.43,6617.66,6738.93,6619.46,6744.44,6619.46C6748.35,6619.46,6751.43,6618.45,6753.12,6616.44C6754.82,6614.42,6755.24,6611.2,6754.39,6606.76ZM6709.73,6590.04C6721.38,6590.04,6733.12,6590.04,6744.88,6590.04C6741.38,6584.85,6737.73,6580.97,6734.18,6578.39C6728.62,6574.36,6723.06,6572.36,6717.88,6572.36C6713.01,6572.36,6709.84,6573.95,6708.35,6577.16C6706.88,6580.36,6707.29,6584.65,6709.73,6590.03ZM6791.35,6626.7C6785.21,6616.44,6778.96,6606.18,6772.72,6595.92C6766.48,6585.66,6760.33,6575.4,6754.2,6565.12C6757.16,6565.12,6760.34,6565.12,6763.41,6565.12C6765.32,6568.27,6767.32,6571.42,6769.23,6574.56C6768.92,6570.19,6769.28,6567.32,6770.51,6565.91C6771.71,6564.53,6773.47,6563.81,6775.81,6563.81C6779.3,6563.81,6783.53,6564.92,6788.51,6567.12C6789.36,6570.33,6790.21,6573.54,6791.06,6576.75C6787.56,6575.33,6784.49,6574.62,6782.06,6574.62C6779.73,6574.62,6778.24,6575.32,6777.3,6576.68C6776.34,6578.05,6776.23,6579.94,6776.98,6582.37C6778.13,6586.07,6779.98,6590.12,6782.7,6594.53C6786.01,6599.9,6789.17,6605.28,6792.55,6610.63C6795.94,6616,6799.32,6621.35,6802.61,6626.71C6798.8,6626.71,6795.09,6626.71,6791.39,6626.71ZM6848.83,6650.37C6846.29,6647.16,6843.75,6643.94,6841.31,6640.72C6844.17,6641.33,6846.5,6641.65,6848.3,6641.65C6850.94,6641.65,6852.74,6641.25,6853.69,6640.48C6854.64,6639.71,6855.28,6638.62,6855.28,6637.24C6855.28,6636.2,6854.6,6633.6,6853.48,6629.45C6853.33,6628.88,6852.95,6628.02,6852.63,6626.9C6841.52,6616.61,6830.29,6606.31,6819.49,6596.02C6808.69,6585.73,6797.9,6575.43,6787.41,6565.13C6791.11,6565.13,6794.82,6565.13,6798.53,6565.13C6804.57,6571.06,6810.66,6577,6816.74,6582.92C6822.83,6588.85,6829.04,6594.76,6835.48,6600.68C6840.36,6605.17,6845,6609.92,6849.87,6614.9C6847.86,6610.22,6846.21,6605.58,6844.79,6601.03C6842.93,6595.05,6840.98,6589.07,6838.97,6583.09C6836.96,6577.11,6835.05,6571.11,6833.04,6565.13C6836.42,6565.13,6839.81,6565.13,6843.41,6565.13C6846.9,6575.58,6850.61,6586.02,6853.99,6596.46C6857.37,6606.89,6860.66,6617.33,6863.62,6627.77C6865.53,6634.51,6866.68,6639.14,6866.91,6641.69C6867.21,6645.11,6866.67,6647.64,6865.1,6649.23C6863.51,6650.84,6860.87,6651.61,6857.16,6651.61C6854.94,6651.61,6852.18,6651.2,6848.79,6650.37Z" opacity="0" clip-rule="evenodd" fill="rgb(55,52,53)" stroke="none" stroke-width="1"/><text id="eC0OT9lDda119" dx="0" dy="0" font-family="&quot;Arial&quot;" font-size="156.41" font-weight="400" transform="matrix(1 0 0 1 1690.686651 6311.864868)" clip-rule="evenodd" fill="rgb(55,52,53)" fill-rule="evenodd" stroke="none" stroke-width="1"><tspan id="eC0OT9lDda120" font-family="&quot;Arial&quot;" font-size="156.41" font-weight="400" font-style="normal" transform="matrix(1 0 0 1 3595.31 6362.09)" clip-rule="evenodd" fill="rgb(55,52,53)" fill-rule="evenodd" stroke-width="1"><![CDATA[   AS4 ]]></tspan></text><text id="eC0OT9lDda121" dx="0" dy="0" font-family="&quot;Arial&quot;" font-size="156.41" font-weight="400" transform="matrix(1 0 0 1 1690.686651 6432.754868)" clip-rule="evenodd" fill="rgb(55,52,53)" fill-rule="evenodd" stroke="none" stroke-width="1"><tspan id="eC0OT9lDda122" font-family="&quot;Arial&quot;" font-size="156.41" font-weight="400" font-style="normal" transform="matrix(1 0 0 1 3595.31 6482.98)" clip-rule="evenodd" fill="rgb(55,52,53)" fill-rule="evenodd" stroke-width="1"><![CDATA[server]]></tspan></text></g><script><![CDATA[!function(t,n){"object"==typeof exports&&"undefined"!=typeof module?module.exports=n():"function"==typeof define&&define.amd?define(n):((t="undefined"!=typeof globalThis?globalThis:t||self).__SVGATOR_PLAYER__=t.__SVGATOR_PLAYER__||{},t.__SVGATOR_PLAYER__["91c80d77"]=n())}(this,(function(){"use strict";function t(t,n){var e=Object.keys(t);if(Object.getOwnPropertySymbols){var r=Object.getOwnPropertySymbols(t);n&&(r=r.filter((function(n){return Object.getOwnPropertyDescriptor(t,n).enumerable}))),e.push.apply(e,r)}return e}function n(n){for(var e=1;e<arguments.length;e++){var r=null!=arguments[e]?arguments[e]:{};e%2?t(Object(r),!0).forEach((function(t){o(n,t,r[t])})):Object.getOwnPropertyDescriptors?Object.defineProperties(n,Object.getOwnPropertyDescriptors(r)):t(Object(r)).forEach((function(t){Object.defineProperty(n,t,Object.getOwnPropertyDescriptor(r,t))}))}return n}function e(t){return(e="function"==typeof Symbol&&"symbol"==typeof Symbol.iterator?function(t){return typeof t}:function(t){return t&&"function"==typeof Symbol&&t.constructor===Symbol&&t!==Symbol.prototype?"symbol":typeof t})(t)}function r(t,n){if(!(t instanceof n))throw new TypeError("Cannot call a class as a function")}function i(t,n){for(var e=0;e<n.length;e++){var r=n[e];r.enumerable=r.enumerable||!1,r.configurable=!0,"value"in r&&(r.writable=!0),Object.defineProperty(t,r.key,r)}}function u(t,n,e){return n&&i(t.prototype,n),e&&i(t,e),t}function o(t,n,e){return n in t?Object.defineProperty(t,n,{value:e,enumerable:!0,configurable:!0,writable:!0}):t[n]=e,t}function a(t){return(a=Object.setPrototypeOf?Object.getPrototypeOf:function(t){return t.__proto__||Object.getPrototypeOf(t)})(t)}function l(t,n){return(l=Object.setPrototypeOf||function(t,n){return t.__proto__=n,t})(t,n)}function s(){if("undefined"==typeof Reflect||!Reflect.construct)return!1;if(Reflect.construct.sham)return!1;if("function"==typeof Proxy)return!0;try{return Boolean.prototype.valueOf.call(Reflect.construct(Boolean,[],(function(){}))),!0}catch(t){return!1}}function f(t,n,e){return(f=s()?Reflect.construct:function(t,n,e){var r=[null];r.push.apply(r,n);var i=new(Function.bind.apply(t,r));return e&&l(i,e.prototype),i}).apply(null,arguments)}function c(t,n){if(n&&("object"==typeof n||"function"==typeof n))return n;if(void 0!==n)throw new TypeError("Derived constructors may only return object or undefined");return function(t){if(void 0===t)throw new ReferenceError("this hasn't been initialised - super() hasn't been called");return t}(t)}function h(t,n,e){return(h="undefined"!=typeof Reflect&&Reflect.get?Reflect.get:function(t,n,e){var r=function(t,n){for(;!Object.prototype.hasOwnProperty.call(t,n)&&null!==(t=a(t)););return t}(t,n);if(r){var i=Object.getOwnPropertyDescriptor(r,n);return i.get?i.get.call(e):i.value}})(t,n,e||t)}function v(t){return function(t){if(Array.isArray(t))return d(t)}(t)||function(t){if("undefined"!=typeof Symbol&&null!=t[Symbol.iterator]||null!=t["@@iterator"])return Array.from(t)}(t)||function(t,n){if(!t)return;if("string"==typeof t)return d(t,n);var e=Object.prototype.toString.call(t).slice(8,-1);"Object"===e&&t.constructor&&(e=t.constructor.name);if("Map"===e||"Set"===e)return Array.from(t);if("Arguments"===e||/^(?:Ui|I)nt(?:8|16|32)(?:Clamped)?Array$/.test(e))return d(t,n)}(t)||function(){throw new TypeError("Invalid attempt to spread non-iterable instance.\nIn order to be iterable, non-array objects must have a [Symbol.iterator]() method.")}()}function d(t,n){(null==n||n>t.length)&&(n=t.length);for(var e=0,r=new Array(n);e<n;e++)r[e]=t[e];return r}var y=g(Math.pow(10,-6));function g(t){var n=arguments.length>1&&void 0!==arguments[1]?arguments[1]:6;if(Number.isInteger(t))return t;var e=Math.pow(10,n);return Math.round((+t+Number.EPSILON)*e)/e}function p(t,n){var e=arguments.length>2&&void 0!==arguments[2]?arguments[2]:y;return Math.abs(t-n)<e}var m=Math.PI/180;function b(t){return t}function w(t,n,e){var r=1-e;return 3*e*r*(t*r+n*e)+e*e*e}function A(){var t=arguments.length>0&&void 0!==arguments[0]?arguments[0]:0,n=arguments.length>1&&void 0!==arguments[1]?arguments[1]:0,e=arguments.length>2&&void 0!==arguments[2]?arguments[2]:1,r=arguments.length>3&&void 0!==arguments[3]?arguments[3]:1;return t<0||t>1||e<0||e>1?null:p(t,n)&&p(e,r)?b:function(i){if(i<=0)return t>0?i*n/t:0===n&&e>0?i*r/e:0;if(i>=1)return e<1?1+(i-1)*(r-1)/(e-1):1===e&&t<1?1+(i-1)*(n-1)/(t-1):1;for(var u,o=0,a=1;o<a;){var l=w(t,e,u=(o+a)/2);if(p(i,l))break;l<i?o=u:a=u}return w(n,r,u)}}function x(){return 1}function k(t){return 1===t?1:0}function _(){var t=arguments.length>0&&void 0!==arguments[0]?arguments[0]:1,n=arguments.length>1&&void 0!==arguments[1]?arguments[1]:0;if(1===t){if(0===n)return k;if(1===n)return x}var e=1/t;return function(t){return t>=1?1:(t+=n*e)-t%e}}var S=Math.sin,O=Math.cos,M=Math.acos,E=Math.asin,j=Math.tan,P=Math.atan2,I=Math.PI/180,B=180/Math.PI,R=Math.sqrt,T=function(){function t(){var n=arguments.length>0&&void 0!==arguments[0]?arguments[0]:1,e=arguments.length>1&&void 0!==arguments[1]?arguments[1]:0,i=arguments.length>2&&void 0!==arguments[2]?arguments[2]:0,u=arguments.length>3&&void 0!==arguments[3]?arguments[3]:1,o=arguments.length>4&&void 0!==arguments[4]?arguments[4]:0,a=arguments.length>5&&void 0!==arguments[5]?arguments[5]:0;r(this,t),this.m=[n,e,i,u,o,a],this.i=null,this.w=null,this.s=null}return u(t,[{key:"determinant",get:function(){var t=this.m;return t[0]*t[3]-t[1]*t[2]}},{key:"isIdentity",get:function(){if(null===this.i){var t=this.m;this.i=1===t[0]&&0===t[1]&&0===t[2]&&1===t[3]&&0===t[4]&&0===t[5]}return this.i}},{key:"point",value:function(t,n){var e=this.m;return{x:e[0]*t+e[2]*n+e[4],y:e[1]*t+e[3]*n+e[5]}}},{key:"translateSelf",value:function(){var t=arguments.length>0&&void 0!==arguments[0]?arguments[0]:0,n=arguments.length>1&&void 0!==arguments[1]?arguments[1]:0;if(!t&&!n)return this;var e=this.m;return e[4]+=e[0]*t+e[2]*n,e[5]+=e[1]*t+e[3]*n,this.w=this.s=this.i=null,this}},{key:"rotateSelf",value:function(){var t=arguments.length>0&&void 0!==arguments[0]?arguments[0]:0;if(t%=360){var n=S(t*=I),e=O(t),r=this.m,i=r[0],u=r[1];r[0]=i*e+r[2]*n,r[1]=u*e+r[3]*n,r[2]=r[2]*e-i*n,r[3]=r[3]*e-u*n,this.w=this.s=this.i=null}return this}},{key:"scaleSelf",value:function(){var t=arguments.length>0&&void 0!==arguments[0]?arguments[0]:1,n=arguments.length>1&&void 0!==arguments[1]?arguments[1]:1;if(1!==t||1!==n){var e=this.m;e[0]*=t,e[1]*=t,e[2]*=n,e[3]*=n,this.w=this.s=this.i=null}return this}},{key:"skewSelf",value:function(t,n){if(n%=360,(t%=360)||n){var e=this.m,r=e[0],i=e[1],u=e[2],o=e[3];t&&(t=j(t*I),e[2]+=r*t,e[3]+=i*t),n&&(n=j(n*I),e[0]+=u*n,e[1]+=o*n),this.w=this.s=this.i=null}return this}},{key:"resetSelf",value:function(){var t=arguments.length>0&&void 0!==arguments[0]?arguments[0]:1,n=arguments.length>1&&void 0!==arguments[1]?arguments[1]:0,e=arguments.length>2&&void 0!==arguments[2]?arguments[2]:0,r=arguments.length>3&&void 0!==arguments[3]?arguments[3]:1,i=arguments.length>4&&void 0!==arguments[4]?arguments[4]:0,u=arguments.length>5&&void 0!==arguments[5]?arguments[5]:0,o=this.m;return o[0]=t,o[1]=n,o[2]=e,o[3]=r,o[4]=i,o[5]=u,this.w=this.s=this.i=null,this}},{key:"recomposeSelf",value:function(){var t=arguments.length>0&&void 0!==arguments[0]?arguments[0]:null,n=arguments.length>1&&void 0!==arguments[1]?arguments[1]:null,e=arguments.length>2&&void 0!==arguments[2]?arguments[2]:null,r=arguments.length>3&&void 0!==arguments[3]?arguments[3]:null,i=arguments.length>4&&void 0!==arguments[4]?arguments[4]:null;return this.isIdentity||this.resetSelf(),t&&(t.x||t.y)&&this.translateSelf(t.x,t.y),n&&this.rotateSelf(n),e&&(e.x&&this.skewSelf(e.x,0),e.y&&this.skewSelf(0,e.y)),!r||1===r.x&&1===r.y||this.scaleSelf(r.x,r.y),i&&(i.x||i.y)&&this.translateSelf(i.x,i.y),this}},{key:"decompose",value:function(){var t=arguments.length>0&&void 0!==arguments[0]?arguments[0]:0,n=arguments.length>1&&void 0!==arguments[1]?arguments[1]:0,e=this.m,r=e[0]*e[0]+e[1]*e[1],i=[[e[0],e[1]],[e[2],e[3]]],u=R(r);if(0===u)return{origin:{x:g(e[4]),y:g(e[5])},translate:{x:g(t),y:g(n)},scale:{x:0,y:0},skew:{x:0,y:0},rotate:0};i[0][0]/=u,i[0][1]/=u;var o=e[0]*e[3]-e[1]*e[2]<0;o&&(u=-u);var a=i[0][0]*i[1][0]+i[0][1]*i[1][1];i[1][0]-=i[0][0]*a,i[1][1]-=i[0][1]*a;var l=R(i[1][0]*i[1][0]+i[1][1]*i[1][1]);if(0===l)return{origin:{x:g(e[4]),y:g(e[5])},translate:{x:g(t),y:g(n)},scale:{x:g(u),y:0},skew:{x:0,y:0},rotate:0};i[1][0]/=l,i[1][1]/=l,a/=l;var s=0;return i[1][1]<0?(s=M(i[1][1])*B,i[0][1]<0&&(s=360-s)):s=E(i[0][1])*B,o&&(s=-s),a=P(a,R(i[0][0]*i[0][0]+i[0][1]*i[0][1]))*B,o&&(a=-a),{origin:{x:g(e[4]),y:g(e[5])},translate:{x:g(t),y:g(n)},scale:{x:g(u),y:g(l)},skew:{x:g(a),y:0},rotate:g(s)}}},{key:"clone",value:function(){var t=this.m;return new this.constructor(t[0],t[1],t[2],t[3],t[4],t[5])}},{key:"toString",value:function(){var t=arguments.length>0&&void 0!==arguments[0]?arguments[0]:" ";return null===this.s&&(this.s="matrix("+this.m.map((function(t){return g(t)})).join(t)+")"),this.s}}],[{key:"create",value:function(t){return t?Array.isArray(t)?f(this,v(t)):t instanceof this?t.clone():(new this).recomposeSelf(t.origin,t.rotate,t.skew,t.scale,t.translate):new this}}]),t}();function N(t,n,e){return t>=.5?e:n}function C(t,n,e){return 0===t||n===e?n:t*(e-n)+n}function F(t,n,e){var r=C(t,n,e);return r<=0?0:r}function L(t,n,e){var r=C(t,n,e);return r<=0?0:r>=1?1:r}function q(t,n,e){return 0===t?n:1===t?e:{x:C(t,n.x,e.x),y:C(t,n.y,e.y)}}function V(t,n,e){return 0===t?n:1===t?e:{x:F(t,n.x,e.x),y:F(t,n.y,e.y)}}function D(t,n,e){var r=function(t,n,e){return Math.round(C(t,n,e))}(t,n,e);return r<=0?0:r>=255?255:r}function z(t,n,e){return 0===t?n:1===t?e:{r:D(t,n.r,e.r),g:D(t,n.g,e.g),b:D(t,n.b,e.b),a:C(t,null==n.a?1:n.a,null==e.a?1:e.a)}}function Y(t,n,e){var r=n.length;if(r!==e.length)return N(t,n,e);for(var i=new Array(r),u=0;u<r;u++)i[u]=C(t,n[u],e[u]);return i}function G(t,n){for(var e=[],r=0;r<t;r++)e.push(n);return e}function U(t,n){if(--n<=0)return t;var e=(t=Object.assign([],t)).length;do{for(var r=0;r<e;r++)t.push(t[r])}while(--n>0);return t}var $,W=function(){function t(n){r(this,t),this.list=n,this.length=n.length}return u(t,[{key:"setAttribute",value:function(t,n){for(var e=this.list,r=0;r<this.length;r++)e[r].setAttribute(t,n)}},{key:"removeAttribute",value:function(t){for(var n=this.list,e=0;e<this.length;e++)n[e].removeAttribute(t)}},{key:"style",value:function(t,n){for(var e=this.list,r=0;r<this.length;r++)e[r].style[t]=n}}]),t}(),H=/-./g,Q=function(t,n){return n.toUpperCase()};function X(t){return"function"==typeof t?t:N}function J(t){return t?"function"==typeof t?t:Array.isArray(t)?function(t){var n=arguments.length>1&&void 0!==arguments[1]?arguments[1]:b;if(!Array.isArray(t))return n;switch(t.length){case 1:return _(t[0])||n;case 2:return _(t[0],t[1])||n;case 4:return A(t[0],t[1],t[2],t[3])||n}return n}(t,null):function(t,n){var e=arguments.length>2&&void 0!==arguments[2]?arguments[2]:b;switch(t){case"linear":return b;case"steps":return _(n.steps||1,n.jump||0)||e;case"bezier":case"cubic-bezier":return A(n.x1||0,n.y1||0,n.x2||0,n.y2||0)||e}return e}(t.type,t.value,null):null}function Z(t,n,e){var r=arguments.length>3&&void 0!==arguments[3]&&arguments[3],i=n.length-1;if(t<=n[0].t)return r?[0,0,n[0].v]:n[0].v;if(t>=n[i].t)return r?[i,1,n[i].v]:n[i].v;var u,o=n[0],a=null;for(u=1;u<=i;u++){if(!(t>n[u].t)){a=n[u];break}o=n[u]}return null==a?r?[i,1,n[i].v]:n[i].v:o.t===a.t?r?[u,1,a.v]:a.v:(t=(t-o.t)/(a.t-o.t),o.e&&(t=o.e(t)),r?[u,t,e(t,o.v,a.v)]:e(t,o.v,a.v))}function K(t,n){var e=arguments.length>2&&void 0!==arguments[2]?arguments[2]:null;return t&&t.length?"function"!=typeof n?null:("function"!=typeof e&&(e=null),function(r){var i=Z(r,t,n);return null!=i&&e&&(i=e(i)),i}):null}function tt(t,n){return t.t-n.t}function nt(t,n,r,i,u){var o,a="@"===r[0],l="#"===r[0],s=$[r],f=N;switch(a?(o=r.substr(1),r=o.replace(H,Q)):l&&(r=r.substr(1)),e(s)){case"function":if(f=s(i,u,Z,J,r,a,n,t),l)return f;break;case"string":f=K(i,X(s));break;case"object":if((f=K(i,X(s.i),s.f))&&"function"==typeof s.u)return s.u(n,f,r,a,t)}return f?function(t,n,e){if(arguments.length>3&&void 0!==arguments[3]&&arguments[3])return t instanceof W?function(r){return t.style(n,e(r))}:function(r){return t.style[n]=e(r)};if(Array.isArray(n)){var r=n.length;return function(i){var u=e(i);if(null==u)for(var o=0;o<r;o++)t[o].removeAttribute(n);else for(var a=0;a<r;a++)t[a].setAttribute(n,u)}}return function(r){var i=e(r);null==i?t.removeAttribute(n):t.setAttribute(n,i)}}(n,r,f,a):null}function et(t,n,r,i){if(!i||"object"!==e(i))return null;var u=null,o=null;return Array.isArray(i)?o=function(t){if(!t||!t.length)return null;for(var n=0;n<t.length;n++)t[n].e&&(t[n].e=J(t[n].e));return t.sort(tt)}(i):(o=i.keys,u=i.data||null),o?nt(t,n,r,o,u):null}function rt(t,n,e){if(!e)return null;var r=[];for(var i in e)if(e.hasOwnProperty(i)){var u=et(t,n,i,e[i]);u&&r.push(u)}return r.length?r:null}function it(t,n){if(!n.duration||n.duration<0)return null;var e=function(t,n){if(!n)return null;var e=[];if(Array.isArray(n))for(var r=n.length,i=0;i<r;i++){var u=n[i];if(2===u.length){var o=null;if("string"==typeof u[0])o=t.getElementById(u[0]);else if(Array.isArray(u[0])){o=[];for(var a=0;a<u[0].length;a++)if("string"==typeof u[0][a]){var l=t.getElementById(u[0][a]);l&&o.push(l)}o=o.length?1===o.length?o[0]:new W(o):null}if(o){var s=rt(t,o,u[1]);s&&(e=e.concat(s))}}}else for(var f in n)if(n.hasOwnProperty(f)){var c=t.getElementById(f);if(c){var h=rt(t,c,n[f]);h&&(e=e.concat(h))}}return e.length?e:null}(t,n.elements);return e?function(t,n){var e=arguments.length>2&&void 0!==arguments[2]?arguments[2]:1/0,r=arguments.length>3&&void 0!==arguments[3]?arguments[3]:1,i=arguments.length>4&&void 0!==arguments[4]&&arguments[4],u=arguments.length>5&&void 0!==arguments[5]?arguments[5]:1,o=t.length,a=r>0?n:0;i&&e%2==0&&(a=n-a);var l=null;return function(s,f){var c=s%n,h=1+(s-c)/n;f*=r,i&&h%2==0&&(f=-f);var v=!1;if(h>e)c=a,v=!0,-1===u&&(c=r>0?0:n);else if(f<0&&(c=n-c),c===l)return!1;l=c;for(var d=0;d<o;d++)t[d](c);return v}}(e,n.duration,n.iterations||1/0,n.direction||1,!!n.alternate,n.fill||1):null}function ut(t){return+("0x"+(t.replace(/[^0-9a-fA-F]+/g,"")||27))}function ot(t,n,e){return!t||!e||n>t.length?t:t.substring(0,n)+ot(t.substring(n+1),e,e)}function at(t){var n=arguments.length>1&&void 0!==arguments[1]?arguments[1]:27;return!t||t%n?t%n:at(t/n,n)}function lt(t,n,e){if(t&&t.length){var r=ut(e),i=ut(n),u=at(r)+5,o=ot(t,at(r,5),u);return o=o.replace(/\x7c$/g,"==").replace(/\x2f$/g,"="),o=function(t,n,e){var r=+("0x"+t.substring(0,4));t=t.substring(4);for(var i=n%r+e%27,u=[],o=0;o<t.length;o+=2)if("|"!==t[o]){var a=+("0x"+t[o]+t[o+1])-i;u.push(a)}else{var l=+("0x"+t.substring(o+1,o+1+4))-i;o+=3,u.push(l)}return String.fromCharCode.apply(String,u)}(o=(o=atob(o)).replace(/[\x41-\x5A]/g,""),i,r),o=JSON.parse(o)}}Number.isInteger||(Number.isInteger=function(t){return"number"==typeof t&&isFinite(t)&&Math.floor(t)===t}),Number.EPSILON||(Number.EPSILON=2220446049250313e-31);var st=function(){function t(n,e){var i=arguments.length>2&&void 0!==arguments[2]?arguments[2]:{};r(this,t),this._id=0,this._running=!1,this._rollingBack=!1,this._animations=n,this.duration=e.duration,this.alternate=e.alternate,this.fill=e.fill,this.iterations=e.iterations,this.direction=i.direction||1,this.speed=i.speed||1,this.fps=i.fps||100,this.offset=i.offset||0,this.rollbackStartOffset=0}return u(t,[{key:"_rollback",value:function(){var t=this,n=1/0,e=null;this.rollbackStartOffset=this.offset,this._rollingBack||(this._rollingBack=!0,this._running=!0);this._id=window.requestAnimationFrame((function r(i){if(t._rollingBack){null==e&&(e=i);var u=i-e,o=t.rollbackStartOffset-u,a=Math.round(o*t.speed);if(a>t.duration&&n!=1/0){var l=!!t.alternate&&a/t.duration%2>1,s=a%t.duration;a=(s+=l?t.duration:0)||t.duration}var f=t.fps?1e3/t.fps:0,c=Math.max(0,a);if(c<n-f){t.offset=c,n=c;for(var h=t._animations,v=h.length,d=0;d<v;d++)h[d](c,t.direction)}var y=!1;if(t.iterations>0&&-1===t.fill){var g=t.iterations*t.duration,p=g==a;a=p?0:a,t.offset=p?0:t.offset,y=a>g}a>0&&t.offset>=a&&!y?t._id=window.requestAnimationFrame(r):t.stop()}}))}},{key:"_start",value:function(){var t=this,n=arguments.length>0&&void 0!==arguments[0]?arguments[0]:0,e=-1/0,r=null,i={},u=function u(o){t._running=!0,null==r&&(r=o);var a=Math.round((o-r+n)*t.speed),l=t.fps?1e3/t.fps:0;if(a>e+l&&!t._rollingBack){t.offset=a,e=a;for(var s=t._animations,f=s.length,c=0,h=0;h<f;h++)i[h]?c++:(i[h]=s[h](a,t.direction),i[h]&&c++);if(c===f)return void t._stop()}t._id=window.requestAnimationFrame(u)};this._id=window.requestAnimationFrame(u)}},{key:"_stop",value:function(){this._id&&window.cancelAnimationFrame(this._id),this._running=!1,this._rollingBack=!1}},{key:"play",value:function(){!this._rollingBack&&this._running||(this._rollingBack=!1,this.rollbackStartOffset>this.duration&&(this.offset=this.rollbackStartOffset-(this.rollbackStartOffset-this.offset)%this.duration,this.rollbackStartOffset=0),this._start(this.offset))}},{key:"stop",value:function(){this._stop(),this.offset=0,this.rollbackStartOffset=0;var t=this.direction,n=this._animations;window.requestAnimationFrame((function(){for(var e=0;e<n.length;e++)n[e](0,t)}))}},{key:"reachedToEnd",value:function(){return this.iterations>0&&this.offset>=this.iterations*this.duration}},{key:"restart",value:function(){this._stop(),this.offset=0,this._start()}},{key:"pause",value:function(){this._stop()}},{key:"reverse",value:function(){this.direction=-this.direction}}],[{key:"build",value:function(e,r){return delete e.animationSettings,e.options=lt(e.options,e.root,"91c80d77"),e.animations.map((function(t){var r=lt(t.s,e.root,"91c80d77");for(var i in delete t.s,e.animationSettings||(e.animationSettings=n({},r)),r)r.hasOwnProperty(i)&&(t[i]=r[i])})),(e=function(t,n){if($=n,!t||!t.root||!Array.isArray(t.animations))return null;for(var e=document.getElementsByTagName("svg"),r=!1,i=0;i<e.length;i++)if(e[i].id===t.root&&!e[i].svgatorAnimation){(r=e[i]).svgatorAnimation=!0;break}if(!r)return null;var u=t.animations.map((function(t){return it(r,t)})).filter((function(t){return!!t}));return u.length?{element:r,animations:u,animationSettings:t.animationSettings,options:t.options||void 0}:null}(e,r))?{el:e.element,options:e.options||{},player:new t(e.animations,e.animationSettings,e.options)}:null}},{key:"push",value:function(t){return this.build(t)}},{key:"init",value:function(){var t=this,n=window.__SVGATOR_PLAYER__&&window.__SVGATOR_PLAYER__["91c80d77"];Array.isArray(n)&&n.splice(0).forEach((function(n){return t.build(n)}))}}]),t}();!function(){for(var t=0,n=["ms","moz","webkit","o"],e=0;e<n.length&&!window.requestAnimationFrame;++e)window.requestAnimationFrame=window[n[e]+"RequestAnimationFrame"],window.cancelAnimationFrame=window[n[e]+"CancelAnimationFrame"]||window[n[e]+"CancelRequestAnimationFrame"];window.requestAnimationFrame||(window.requestAnimationFrame=function(n){var e=Date.now(),r=Math.max(0,16-(e-t)),i=window.setTimeout((function(){n(e+r)}),r);return t=e+r,i},window.cancelAnimationFrame=window.clearTimeout)}();var ft=function(t,n){var e=!1,r=null;return function(i){e&&clearTimeout(e),e=setTimeout((function(){return function(){for(var i=0,u=window.innerHeight,o=0,a=window.innerWidth,l=t.parentNode;l instanceof Element;){var s=window.getComputedStyle(l);if("visible"!==s.overflowY||"visible"!==s.overflowX){var f=l.getBoundingClientRect();"visible"!==s.overflowY&&(i=Math.max(i,f.top),u=Math.min(u,f.bottom)),"visible"!==s.overflowX&&(o=Math.max(o,f.left),a=Math.min(a,f.right))}if(l===l.parentNode)break;l=l.parentNode}e=!1;var c=t.getBoundingClientRect(),h=Math.min(c.height,Math.max(0,i-c.top)),v=Math.min(c.height,Math.max(0,c.bottom-u)),d=Math.min(c.width,Math.max(0,o-c.left)),y=Math.min(c.width,Math.max(0,c.right-a)),g=(c.height-h-v)/c.height,p=(c.width-d-y)/c.width,m=Math.round(g*p*100);null!==r&&r===m||(r=m,n(m))}()}),100)}},ct=function(){function t(n,e,i){r(this,t),e=Math.max(1,e||1),e=Math.min(e,100),this.el=n,this.onTresholdChange=i&&i.call?i:function(){},this.tresholdPercent=e||1,this.currentVisibility=null,this.visibilityCalculator=ft(n,this.onVisibilityUpdate.bind(this)),this.bindScrollWatchers(),this.visibilityCalculator()}return u(t,[{key:"bindScrollWatchers",value:function(){for(var t=this.el.parentNode;t&&(t.addEventListener("scroll",this.visibilityCalculator),t!==t.parentNode&&t!==document);)t=t.parentNode}},{key:"onVisibilityUpdate",value:function(t){var n=this.currentVisibility>=this.tresholdPercent,e=t>=this.tresholdPercent;if(null===this.currentVisibility||n!==e)return this.currentVisibility=t,void this.onTresholdChange(e);this.currentVisibility=t}}]),t}();function ht(t){return g(t)+""}function vt(t){var n=arguments.length>1&&void 0!==arguments[1]?arguments[1]:" ";return t&&t.length?t.map(ht).join(n):""}function dt(t){return ht(t.x)+","+ht(t.y)}function yt(t){return t?null==t.a||t.a>=1?"rgb("+t.r+","+t.g+","+t.b+")":"rgba("+t.r+","+t.g+","+t.b+","+t.a+")":"transparent"}function gt(t){return t?"url(#"+t+")":"none"}var pt={f:null,i:V,u:function(t,n){return function(e){var r=n(e);t.setAttribute("rx",ht(r.x)),t.setAttribute("ry",ht(r.y))}}},mt={f:null,i:function(t,n,e){return 0===t?n:1===t?e:{width:F(t,n.width,e.width),height:F(t,n.height,e.height)}},u:function(t,n){return function(e){var r=n(e);t.setAttribute("width",ht(r.width)),t.setAttribute("height",ht(r.height))}}};Object.freeze({M:2,L:2,Z:0,H:1,V:1,C:6,Q:4,T:2,S:4,A:7});var bt={},wt=null;function At(t){var n=function(){if(wt)return wt;if("object"!==("undefined"==typeof document?"undefined":e(document))||!document.createElementNS)return{};var t=document.createElementNS("http://www.w3.org/2000/svg","svg");return t&&t.style?(t.style.position="absolute",t.style.opacity="0.01",t.style.zIndex="-9999",t.style.left="-9999px",t.style.width="1px",t.style.height="1px",wt={svg:t}):{}}().svg;if(!n)return function(t){return null};var r=document.createElementNS(n.namespaceURI,"path");r.setAttributeNS(null,"d",t),r.setAttributeNS(null,"fill","none"),r.setAttributeNS(null,"stroke","none"),n.appendChild(r);var i=r.getTotalLength();return function(t){var n=r.getPointAtLength(i*t);return{x:n.x,y:n.y}}}function xt(t){return bt[t]?bt[t]:bt[t]=At(t)}function kt(t,n,e,r){if(!t||!r)return!1;var i=["M",t.x,t.y];if(n&&e&&(i.push("C"),i.push(n.x),i.push(n.y),i.push(e.x),i.push(e.y)),n?!e:e){var u=n||e;i.push("Q"),i.push(u.x),i.push(u.y)}return n||e||i.push("L"),i.push(r.x),i.push(r.y),i.join(" ")}function _t(t,n,e,r){var i=arguments.length>4&&void 0!==arguments[4]?arguments[4]:1,u=kt(t,n,e,r),o=xt(u);try{return o(i)}catch(t){return null}}function St(t,n,e,r){var i=1-r;return i*i*t+2*i*r*n+r*r*e}function Ot(t,n,e,r){return 2*(1-r)*(n-t)+2*r*(e-n)}function Mt(t,n,e,r){var i=arguments.length>4&&void 0!==arguments[4]&&arguments[4],u=_t(t,n,null,e,r);return u||(u={x:St(t.x,n.x,e.x,r),y:St(t.y,n.y,e.y,r)}),i&&(u.a=Et(t,n,e,r)),u}function Et(t,n,e,r){return Math.atan2(Ot(t.y,n.y,e.y,r),Ot(t.x,n.x,e.x,r))}function jt(t,n,e,r,i){var u=i*i;return i*u*(r-t+3*(n-e))+3*u*(t+e-2*n)+3*i*(n-t)+t}function Pt(t,n,e,r,i){var u=1-i;return 3*(u*u*(n-t)+2*u*i*(e-n)+i*i*(r-e))}function It(t,n,e,r,i){var u=arguments.length>5&&void 0!==arguments[5]&&arguments[5],o=_t(t,n,e,r,i);return o||(o={x:jt(t.x,n.x,e.x,r.x,i),y:jt(t.y,n.y,e.y,r.y,i)}),u&&(o.a=Bt(t,n,e,r,i)),o}function Bt(t,n,e,r,i){return Math.atan2(Pt(t.y,n.y,e.y,r.y,i),Pt(t.x,n.x,e.x,r.x,i))}function Rt(t,n,e){return t+(n-t)*e}function Tt(t,n,e){var r=arguments.length>3&&void 0!==arguments[3]&&arguments[3],i={x:Rt(t.x,n.x,e),y:Rt(t.y,n.y,e)};return r&&(i.a=Nt(t,n)),i}function Nt(t,n){return Math.atan2(n.y-t.y,n.x-t.x)}function Ct(t,n,e){var r=arguments.length>3&&void 0!==arguments[3]&&arguments[3];if(Lt(n)){if(qt(e))return Mt(n,e.start,e,t,r)}else if(Lt(e)){if(n.end)return Mt(n,n.end,e,t,r)}else{if(n.end)return e.start?It(n,n.end,e.start,e,t,r):Mt(n,n.end,e,t,r);if(e.start)return Mt(n,e.start,e,t,r)}return Tt(n,e,t,r)}function Ft(t,n,e){var r=Ct(t,n,e,!0);return r.a=function(t){return arguments.length>1&&void 0!==arguments[1]&&arguments[1]?t+Math.PI:t}(r.a)/m,r}function Lt(t){return!t.type||"corner"===t.type}function qt(t){return null!=t.start&&!Lt(t)}var Vt=new T;var Dt={f:function(t){return t?t.join(" "):""},i:function(t,n,r){if(0===t)return n;if(1===t)return r;var i=n.length;if(i!==r.length)return N(t,n,r);for(var u,o=new Array(i),a=0;a<i;a++){if((u=e(n[a]))!==e(r[a]))return N(t,n,r);if("number"===u)o[a]=C(t,n[a],r[a]);else{if(n[a]!==r[a])return N(t,n,r);o[a]=n[a]}}return o}},zt={f:null,i:Y,u:function(t,n){return function(e){var r=n(e);t.setAttribute("x1",ht(r[0])),t.setAttribute("y1",ht(r[1])),t.setAttribute("x2",ht(r[2])),t.setAttribute("y2",ht(r[3]))}}},Yt={f:ht,i:C},Gt={f:ht,i:L},Ut={f:function(t){var n=arguments.length>1&&void 0!==arguments[1]?arguments[1]:" ";return t&&t.length>0&&(t=t.map((function(t){return g(t,4)}))),vt(t,n)},i:function(t,n,e){var r,i,u,o=n.length,a=e.length;if(o!==a)if(0===o)n=G(o=a,0);else if(0===a)a=o,e=G(o,0);else{var l=(u=(r=o)*(i=a)/function(t,n){for(var e;n;)e=n,n=t%n,t=e;return t||1}(r,i))<0?-u:u;n=U(n,Math.floor(l/o)),e=U(e,Math.floor(l/a)),o=a=l}for(var s=[],f=0;f<o;f++)s.push(g(F(t,n[f],e[f])));return s}};function $t(t,n,e){return t.map((function(t){return function(t,n,e){var r=t.v;if(!r||"g"!==r.t||r.s||!r.v||!r.r)return t;var i=e.getElementById(r.r),u=i&&i.querySelectorAll("stop")||[];return r.s=r.v.map((function(t,n){var e=u[n]&&u[n].getAttribute("offset");return{c:t,o:e=g(parseInt(e)/100)}})),delete r.v,t}(t,0,e)}))}var Wt={gt:"gradientTransform",c:{x:"cx",y:"cy"},rd:"r",f:{x:"x1",y:"y1"},to:{x:"x2",y:"y2"}};function Ht(t,n,r,i,u,o,a,l){return $t(t,0,l),n=function(t,n,e){for(var r,i,u,o=t.length-1,a={},l=0;l<=o;l++)(r=t[l]).e&&(r.e=n(r.e)),r.v&&"g"===(i=r.v).t&&i.r&&(u=e.getElementById(i.r))&&(a[i.r]={e:u,s:u.querySelectorAll("stop")});return a}(t,i,l),function(i){var u=r(i,t,Qt);if(!u)return"none";if("c"===u.t)return yt(u.v);if("g"===u.t){if(!n[u.r])return gt(u.r);var o=n[u.r];return function(t,n){for(var e=t.s,r=e.length;r<n.length;r++){var i=e[e.length-1].cloneNode();i.id=Zt(i.id),t.e.appendChild(i),e=t.s=t.e.querySelectorAll("stop")}for(var u=0,o=e.length,a=n.length-1;u<o;u++)e[u].setAttribute("stop-color",yt(n[Math.min(u,a)].c)),e[u].setAttribute("offset",n[Math.min(u,a)].o)}(o,u.s),Object.keys(Wt).forEach((function(t){if(void 0!==u[t])if("object"!==e(Wt[t])){var n,r="gt"===t?(n=u[t],Array.isArray(n)?"matrix("+n.join(" ")+")":""):u[t],i=Wt[t];o.e.setAttribute(i,r)}else Object.keys(Wt[t]).forEach((function(n){if(void 0!==u[t][n]){var e=u[t][n],r=Wt[t][n];o.e.setAttribute(r,e)}}))})),gt(u.r)}return"none"}}function Qt(t,e,r){if(0===t)return e;if(1===t)return r;if(e&&r){var i=e.t;if(i===r.t)switch(e.t){case"c":return{t:i,v:z(t,e.v,r.v)};case"g":if(e.r===r.r){var u={t:i,s:Xt(t,e.s,r.s),r:e.r};return e.gt&&r.gt&&(u.gt=Y(t,e.gt,r.gt)),e.c?(u.c=q(t,e.c,r.c),u.rd=F(t,e.rd,r.rd)):e.f&&(u.f=q(t,e.f,r.f),u.to=q(t,e.to,r.to)),u}}if("c"===e.t&&"g"===r.t||"c"===r.t&&"g"===e.t){var o="c"===e.t?e:r,a="g"===e.t?n({},e):n({},r),l=a.s.map((function(t){return{c:o.v,o:t.o}}));return a.s="c"===e.t?Xt(t,l,a.s):Xt(t,a.s,l),a}}return N(t,e,r)}function Xt(t,n,e){if(n.length===e.length)return n.map((function(n,r){return Jt(t,n,e[r])}));for(var r=Math.max(n.length,e.length),i=[],u=0;u<r;u++){var o=Jt(t,n[Math.min(u,n.length-1)],e[Math.min(u,e.length-1)]);i.push(o)}return i}function Jt(t,n,e){return{o:L(t,n.o,e.o||0),c:z(t,n.c,e.c||{})}}function Zt(t){return t.replace(/-fill-([0-9]+)$/,(function(t,n){return"-fill-"+(+n+1)}))}var Kt={blur:V,brightness:F,contrast:F,"drop-shadow":function(t,n,e){return 0===t?n:1===t?e:{blur:V(t,n.blur,e.blur),offset:q(t,n.offset,e.offset),color:z(t,n.color,e.color)}},grayscale:F,"hue-rotate":C,invert:F,opacity:F,saturate:F,sepia:F};function tn(t,n,e){if(0===t)return n;if(1===t)return e;var r=n.length;if(r!==e.length)return N(t,n,e);for(var i,u=[],o=0;o<r;o++){if(n[o].type!==e[o].type)return n;if(!(i=Kt[n[o].type]))return N(t,n,e);u.push({type:n.type,value:i(t,n[o].value,e[o].value)})}return u}var nn={blur:function(t){return t?function(n){t.setAttribute("stdDeviation",dt(n))}:null},brightness:function(t,n,e){return(t=rn(e,n))?function(n){n=ht(n),t.map((function(t){return t.setAttribute("slope",n)}))}:null},contrast:function(t,n,e){return(t=rn(e,n))?function(n){var e=ht((1-n)/2);n=ht(n),t.map((function(t){t.setAttribute("slope",n),t.setAttribute("intercept",e)}))}:null},"drop-shadow":function(t,n,e){var r=e.getElementById(n+"-blur");if(!r)return null;var i=e.getElementById(n+"-offset");if(!i)return null;var u=e.getElementById(n+"-flood");return u?function(t){r.setAttribute("stdDeviation",dt(t.blur)),i.setAttribute("dx",ht(t.offset.x)),i.setAttribute("dy",ht(t.offset.y)),u.setAttribute("flood-color",yt(t.color))}:null},grayscale:function(t){return t?function(n){t.setAttribute("values",vt(function(t){return[.2126+.7874*(t=1-t),.7152-.7152*t,.0722-.0722*t,0,0,.2126-.2126*t,.7152+.2848*t,.0722-.0722*t,0,0,.2126-.2126*t,.7152-.7152*t,.0722+.9278*t,0,0,0,0,0,1,0]}(n)))}:null},"hue-rotate":function(t){return t?function(n){return t.setAttribute("values",ht(n))}:null},invert:function(t,n,e){return(t=rn(e,n))?function(n){n=ht(n)+" "+ht(1-n),t.map((function(t){return t.setAttribute("tableValues",n)}))}:null},opacity:function(t,n,e){return(t=e.getElementById(n+"-A"))?function(n){return t.setAttribute("tableValues","0 "+ht(n))}:null},saturate:function(t){return t?function(n){return t.setAttribute("values",ht(n))}:null},sepia:function(t){return t?function(n){return t.setAttribute("values",vt(function(t){return[.393+.607*(t=1-t),.769-.769*t,.189-.189*t,0,0,.349-.349*t,.686+.314*t,.168-.168*t,0,0,.272-.272*t,.534-.534*t,.131+.869*t,0,0,0,0,0,1,0]}(n)))}:null}};var en=["R","G","B"];function rn(t,n){var e=en.map((function(e){return t.getElementById(n+"-"+e)||null}));return-1!==e.indexOf(null)?null:e}var un={fill:Ht,"fill-opacity":Gt,stroke:Ht,"stroke-opacity":Gt,"stroke-width":Yt,"stroke-dashoffset":{f:ht,i:C},"stroke-dasharray":Ut,opacity:Gt,transform:function(t,n,r,i){if(!(t=function(t,n){if(!t||"object"!==e(t))return null;var r=!1;for(var i in t)t.hasOwnProperty(i)&&(t[i]&&t[i].length?(t[i].forEach((function(t){t.e&&(t.e=n(t.e))})),r=!0):delete t[i]);return r?t:null}(t,i)))return null;var u=function(e,i,u){var o=arguments.length>3&&void 0!==arguments[3]?arguments[3]:null;return t[e]?r(i,t[e],u):n&&n[e]?n[e]:o};return n&&n.a&&t.o?function(n){var e=r(n,t.o,Ft);return Vt.recomposeSelf(e,u("r",n,C,0)+e.a,u("k",n,q),u("s",n,q),u("t",n,q)).toString()}:function(t){return Vt.recomposeSelf(u("o",t,Ct,null),u("r",t,C,0),u("k",t,q),u("s",t,q),u("t",t,q)).toString()}},"#filter":function(t,n,e,r,i,u,o,a){if(!n.items||!t||!t.length)return null;var l=function(t,n){var e=(t=t.map((function(t){return t&&nn[t[0]]?(n.getElementById(t[1]),nn[t[0]](n.getElementById(t[1]),t[1],n)):null}))).length;return function(n){for(var r=0;r<e;r++)t[r]&&t[r](n[r].value)}}(n.items,a);return l?(t=function(t,n){return t.map((function(t){return t.e=n(t.e),t}))}(t,r),function(n){l(e(n,t,tn))}):null},"#line":zt,points:{f:vt,i:Y},d:Dt,r:Yt,"#size":mt,"#radius":pt,_:function(t,n){if(Array.isArray(t))for(var e=0;e<t.length;e++)this[t[e]]=n;else this[t]=n}},on=function(t){!function(t,n){if("function"!=typeof n&&null!==n)throw new TypeError("Super expression must either be null or a function");t.prototype=Object.create(n&&n.prototype,{constructor:{value:t,writable:!0,configurable:!0}}),n&&l(t,n)}(o,t);var n,e,i=(n=o,e=s(),function(){var t,r=a(n);if(e){var i=a(this).constructor;t=Reflect.construct(r,arguments,i)}else t=r.apply(this,arguments);return c(this,t)});function o(){return r(this,o),i.apply(this,arguments)}return u(o,null,[{key:"build",value:function(t){var n=h(a(o),"build",this).call(this,t,un);if(!n)return null;var e=n.el,r=n.options,i=n.player;return function(t,n,e){if("click"===e.start){var r=function(){switch(e.click){case"freeze":return!t._running&&t.reachedToEnd()&&(t.offset=0),t._running?t.pause():t.play();case"restart":return t.offset>0?t.restart():t.play();case"reverse":var n=!t._rollingBack&&t._running,r=t.reachedToEnd();return n||r&&1===t.fill?(t.pause(),r&&(t.offset=t.duration-1),t._rollback()):r?t.restart():t.play();case"none":default:return!t._running&&t.offset?t.restart():t.play()}};return void n.addEventListener("click",r)}if("hover"===e.start)return n.addEventListener("mouseenter",(function(){return t.reachedToEnd()?t.restart():t.play()})),void n.addEventListener("mouseleave",(function(){switch(e.hover){case"freeze":return t.pause();case"reset":return t.stop();case"reverse":return t.pause(),t._rollback();case"none":default:return}}));if("scroll"===e.start)return void new ct(n,e.scroll||25,(function(n){n?t.reachedToEnd()?t.restart():t.play():t.pause()}));t.play()}(i,e,r),i}}]),o}(st);return on.init(),on}));
(function(s,i,o,w){w[o]=w[o]||{};w[o][s]=w[o][s]||[];w[o][s].push(i);})('91c80d77',{"root":"eC0OT9lDda11","animations":[{"elements":{"eC0OT9lDda13":{"transform":{"data":{"t":{"x":-4423.969971,"y":-6362.85498}},"keys":{"o":[{"t":916.6666666666667,"v":{"x":4423.969971,"y":6362.85498,"type":"corner"}},{"t":1500,"v":{"x":4423.969971,"y":6464.825503,"type":"corner"}},{"t":2000,"v":{"x":4423.969971,"y":6306.935657,"type":"corner"}},{"t":2500,"v":{"x":4423.969971,"y":6341.96498,"type":"corner"}}]}},"opacity":[{"t":916.6666666666667,"v":0},{"t":1083.3333333333335,"v":1}]},"eC0OT9lDda14":{"transform":{"data":{"t":{"x":-4412.434814,"y":-6294.399902}},"keys":{"o":[{"t":833.3333333333334,"v":{"x":4412.434814,"y":6294.399902,"type":"corner"}},{"t":1416.6666666666667,"v":{"x":4412.434814,"y":6374.499902,"type":"corner"}},{"t":1916.6666666666667,"v":{"x":4412.434814,"y":6204.479902,"type":"corner"}},{"t":2416.666666666667,"v":{"x":4412.434814,"y":6263.629902,"type":"corner"}}]}},"opacity":[{"t":833.3333333333334,"v":0},{"t":1000,"v":1}]},"eC0OT9lDda15":{"transform":{"data":{"t":{"x":-4391.755127,"y":-6217.830078}},"keys":{"o":[{"t":750,"v":{"x":4391.755127,"y":6217.830078,"type":"corner"}},{"t":1333.3333333333335,"v":{"x":4391.755127,"y":6281.200078,"type":"corner"}},{"t":1916.6666666666667,"v":{"x":4391.755127,"y":6098.350078,"type":"corner"}},{"t":2416.666666666667,"v":{"x":4391.755127,"y":6183.590078,"type":"corner"}}]}},"opacity":[{"t":750,"v":0},{"t":916.6666666666667,"v":1}]},"eC0OT9lDda110":{"opacity":[{"t":416.6666666666667,"v":0},{"t":750,"v":1}]},"eC0OT9lDda111":{"transform":{"data":{"t":{"x":-6377.725098,"y":-6489.560059}},"keys":{"o":[{"t":1166.6666666666667,"v":{"x":6377.725098,"y":6489.560059,"type":"corner"}},{"t":1666.6666666666667,"v":{"x":6377.725098,"y":6875.513013,"type":"corner"}},{"t":2166.666666666667,"v":{"x":6377.725098,"y":6234.055059,"type":"corner"}},{"t":2666.666666666667,"v":{"x":6377.725098,"y":6460.203254,"type":"corner"}}]}},"opacity":[{"t":1166.6666666666667,"v":0},{"t":1333.3333333333335,"v":1}]},"eC0OT9lDda112":{"transform":{"data":{"t":{"x":-6365.285156,"y":-6105.26001}},"keys":{"o":[{"t":1083.3333333333335,"v":{"x":6365.285156,"y":6105.26001,"type":"corner"}},{"t":1583.3333333333335,"v":{"x":6365.285156,"y":6359.97,"type":"corner"}},{"t":2083.3333333333335,"v":{"x":6365.285156,"y":5890.063343,"type":"corner"}},{"t":2583.3333333333335,"v":{"x":6365.285156,"y":6157.393342,"type":"corner"}}]}},"opacity":[{"t":1083.3333333333335,"v":0},{"t":1250,"v":1}]},"eC0OT9lDda113":{"transform":{"data":{"t":{"x":-6374.099854,"y":-5757.810059}},"keys":{"o":[{"t":1000,"v":{"x":6374.099854,"y":5757.810059,"type":"corner"}},{"t":1500,"v":{"x":6374.099854,"y":5989.56999,"type":"corner"}},{"t":2000,"v":{"x":6374.099854,"y":5564.870059,"type":"corner"}},{"t":2500,"v":{"x":6374.099854,"y":5814.624306,"type":"corner"}}]}},"opacity":[{"t":1000,"v":0},{"t":1166.6666666666667,"v":1}]},"eC0OT9lDda114":{"transform":{"data":{"t":{"x":-6356.366455,"y":-5867.894287}},"keys":{"o":[{"t":1000,"v":{"x":6356.366455,"y":5867.894287,"type":"corner"}},{"t":1500,"v":{"x":6356.366455,"y":6099.654218,"type":"corner"}},{"t":2000,"v":{"x":6356.366455,"y":5674.954287,"type":"corner"}},{"t":2500,"v":{"x":6356.366455,"y":5924.708534,"type":"corner"}}]}},"opacity":[{"t":1000,"v":0},{"t":1166.6666666666667,"v":1}]},"eC0OT9lDda115":{"transform":{"data":{"t":{"x":-6374.094971,"y":-5375.080078}},"keys":{"o":[{"t":916.6666666666667,"v":{"x":6374.094971,"y":5375.080078,"type":"corner"}},{"t":1416.6666666666667,"v":{"x":6374.094971,"y":5601.220079,"type":"corner"}},{"t":2000,"v":{"x":6374.094971,"y":5284.390078,"type":"corner"}},{"t":2583.3333333333335,"v":{"x":6374.094971,"y":5521.100078,"type":"corner"}}]}},"opacity":[{"t":916.6666666666667,"v":0},{"t":1083.3333333333335,"v":1}]},"eC0OT9lDda116":{"transform":{"data":{"t":{"x":-6388.96582,"y":-5500.030029}},"keys":{"o":[{"t":916.6666666666667,"v":{"x":6388.96582,"y":5500.030029,"type":"corner"}},{"t":1416.6666666666667,"v":{"x":6388.96582,"y":5726.17003,"type":"corner"}},{"t":2000,"v":{"x":6388.96582,"y":5409.340029,"type":"corner"}},{"t":2583.3333333333335,"v":{"x":6388.96582,"y":5646.050029,"type":"corner"}}]}},"opacity":[{"t":916.6666666666667,"v":0},{"t":1083.3333333333335,"v":1}]},"eC0OT9lDda117":{"transform":{"data":{"t":{"x":-6363.042236,"y":-6226.280029}},"keys":{"o":[{"t":1083.3333333333335,"v":{"x":6363.042236,"y":6226.280029,"type":"corner"}},{"t":1583.3333333333335,"v":{"x":6363.042236,"y":6480.990019,"type":"corner"}},{"t":2083.3333333333335,"v":{"x":6363.042236,"y":6011.083362,"type":"corner"}},{"t":2583.3333333333335,"v":{"x":6363.042236,"y":6278.413361,"type":"corner"}}]}},"opacity":[{"t":1083.3333333333335,"v":0},{"t":1250,"v":1}]},"eC0OT9lDda118":{"transform":{"data":{"t":{"x":-6369.543945,"y":-6596.670166}},"keys":{"o":[{"t":1166.6666666666667,"v":{"x":6369.543945,"y":6596.670166,"type":"corner"}},{"t":1666.6666666666667,"v":{"x":6369.543945,"y":6982.62312,"type":"corner"}},{"t":2166.666666666667,"v":{"x":6369.543945,"y":6341.165166,"type":"corner"}},{"t":2666.666666666667,"v":{"x":6369.543945,"y":6567.313361,"type":"corner"}}]}},"opacity":[{"t":1166.6666666666667,"v":0},{"t":1333.3333333333335,"v":1}]},"eC0OT9lDda119":{"transform":{"data":{"t":{"x":-147.320371,"y":54.500156}},"keys":{"o":[{"t":0,"v":{"x":1838.007022,"y":6257.364712,"type":"corner"}},{"t":250,"v":{"x":3290.932795,"y":6258.405483,"type":"corner"}},{"t":416.6666666666667,"v":{"x":3715.570119,"y":6258.405483,"type":"corner"}}]}}},"eC0OT9lDda121":{"transform":{"data":{"t":{"x":-218.735776,"y":54.50002}},"keys":{"o":[{"t":0,"v":{"x":1909.422427,"y":6378.254848,"type":"corner"}},{"t":250,"v":{"x":3362.3482,"y":6379.295619,"type":"corner"}},{"t":416.6666666666667,"v":{"x":3786.985524,"y":6379.295619,"type":"corner"}}]}}}},"s":"MDJA2M2EwNDdCOHDk5YTk3ODY5SOVY4ZTk0OTMK0NzVmTDU4NTVg1OEk1ODUzNNTg1ODU4NTg1DODU4NTg1ODUJ4VzU4NTg1ODGVhNTE0Nzg5OEGU5NzhhODg5UOUo4ZTk0OTMB0NzVmNTY1MTEQ3OGU5OThhOHTc4Njk5OGU5FNDkzOTg0NzVDmNTY1MTQ3OGII4ZTkxOTE0NXzVmNTY1MTQ3CODY5MTk5OGEL5NzkzODY5OVLE4YTQ3NWY4YWjg2UTkxOTg4VYTUxNDc5ODkO1OGE4YTg5NDKc1ZjU2NTM1NJ2Ey"}],"options":"MDGAyMzk4M2Y5MTDkxN2U4ZjkxGM2Y1NzNmODAC4OTg2ODA4ODONmNDkzZjgwTUjg5ODY4MEo4LODNmNTczZjhHmODJDOTA5MTTdlOGZMOTEzZPjlh"},'__SVGATOR_PLAYER__',window)]]></script></svg>