<?xml version="1.0" encoding="UTF-8"?>
<!DOCTYPE svg PUBLIC "-//W3C//DTD SVG 1.1//EN" "http://www.w3.org/Graphics/SVG/1.1/DTD/svg11.dtd">
<!-- Creator: CorelDRAW 2020 (64-Bit) -->
<svg xmlns="http://www.w3.org/2000/svg" xml:space="preserve" width="8.5in" height="11in" version="1.1" style="shape-rendering:geometricPrecision; text-rendering:geometricPrecision; image-rendering:optimizeQuality; fill-rule:evenodd; clip-rule:evenodd"
viewBox="0 0 8500 11000"
 xmlns:xlink="http://www.w3.org/1999/xlink"
 xmlns:xodm="http://www.corel.com/coreldraw/odm/2003">
 <defs>
  <style type="text/css">
   <![CDATA[
    .str0 {stroke:#373435;stroke-width:13.89;stroke-miterlimit:2.61313}
    .fil1 {fill:none}
    .fil0 {fill:#FEFEFE}
   ]]>
  </style>
 </defs>
 <g id="Layer_x0020_1">
  <metadata id="CorelCorpID_0Corel-Layer"/>
  <rect class="fil0 str0" x="10867.88" y="1742.89" width="4500" height="2500" rx="25" ry="26.99"/>
  <rect class="fil0 str0" x="11653.87" y="2359.57" width="962.99" height="202.02" rx="12.23" ry="4.99"/>
  <rect class="fil0 str0" x="11357.07" y="1871.73" width="490.32" height="116.54" rx="6.23" ry="2.88"/>
  <rect class="fil0 str0" x="11653.87" y="3233.03" width="962.99" height="202.02" rx="12.23" ry="4.99"/>
  <rect class="fil0 str0" x="11653.87" y="2760.72" width="962.99" height="202.02" rx="12.23" ry="4.99"/>
  <rect class="fil0 str0" x="12744.08" y="2357.52" width="962.99" height="202.02" rx="12.23" ry="4.99"/>
  <rect class="fil0 str0" x="12744.08" y="3230.98" width="962.99" height="202.02" rx="12.23" ry="4.99"/>
  <rect class="fil0 str0" x="13833.26" y="2357.52" width="962.99" height="202.02" rx="12.23" ry="4.99"/>
  <rect class="fil0 str0" x="13833.26" y="3230.98" width="962.99" height="202.02" rx="12.23" ry="4.99"/>
  <rect class="fil0 str0" x="12744.08" y="2758.68" width="962.99" height="202.02" rx="12.23" ry="4.99"/>
  <rect class="fil0 str0" x="13835.31" y="2757.29" width="962.99" height="202.02" rx="12.23" ry="4.99"/>
  <line class="fil1 str0" x1="10867.88" y1="2120.61" x2="15361.04" y2= "2120.61" />
  <line class="fil1 str0" x1="11235.36" y1="2119.39" x2="11235.36" y2= "4237.33" />
  <line class="fil1 str0" x1="11638.97" y1="2279.06" x2="12167.74" y2= "2279.06" />
  <line class="fil1 str0" x1="11066.78" y1="1874.11" x2="11237.07" y2= "1874.11" />
  <line class="fil1 str0" x1="15010.37" y1="1870.77" x2="15180.65" y2= "1870.77" />
  <line class="fil1 str0" x1="11236.05" y1="1930.16" x2="11065.46" y2= "1930.16" />
  <line class="fil1 str0" x1="15179.63" y1="1926.82" x2="15009.05" y2= "1926.82" />
  <line class="fil1 str0" x1="11234.74" y1="1982.73" x2="11064.16" y2= "1982.73" />
  <line class="fil1 str0" x1="15178.33" y1="1979.39" x2="15007.74" y2= "1979.39" />
  <line class="fil1 str0" x1="12738.3" y1="2281.77" x2="13267.06" y2= "2281.77" />
  <line class="fil1 str0" x1="13843.05" y1="2284.48" x2="14371.81" y2= "2284.48" />
  <line class="fil1 str0" x1="11655.26" y1="2691.64" x2="12184.02" y2= "2691.64" />
  <line class="fil1 str0" x1="12741.01" y1="2694.36" x2="13269.78" y2= "2694.36" />
  <line class="fil1 str0" x1="13826.76" y1="2697.08" x2="14355.52" y2= "2697.08" />
  <line class="fil1 str0" x1="11660.68" y1="3162.59" x2="12189.45" y2= "3162.59" />
  <line class="fil1 str0" x1="12745.75" y1="3159.88" x2="13274.52" y2= "3159.88" />
  <line class="fil1 str0" x1="13830.83" y1="3157.17" x2="14359.59" y2= "3157.17" />
  <circle class="fil1 str0" cx="11055.69" cy="2384.76" r="54.69"/>
  <circle class="fil1 str0" cx="11054.38" cy="2603.51" r="54.69"/>
  <circle class="fil1 str0" cx="11053.08" cy="2822.26" r="54.69"/>
 </g>
</svg>
